<?xml version="1.0" standalone="no"?>
<!DOCTYPE svg PUBLIC "-//W3C//DTD SVG 20010904//EN"
 "http://www.w3.org/TR/2001/REC-SVG-20010904/DTD/svg10.dtd">
<svg version="1.0" xmlns="http://www.w3.org/2000/svg"
 width="3005.000000pt" height="7061.000000pt" viewBox="0 0 3005.000000 7061.000000"
 preserveAspectRatio="xMidYMid meet">
<metadata>
Created by potrace 1.16, written by Peter Selinger 2001-2019
</metadata>
<g transform="translate(0.000000,7061.000000) scale(0.100000,-0.100000)"
fill="#000000" stroke="none">
<path d="M1224 69196 c-65 -29 -151 -38 -398 -41 -164 -2 -296 -9 -381 -20
-143 -19 -327 -62 -399 -93 l-46 -21 0 -6025 c0 -3314 2 -6026 5 -6026 2 0 33
26 68 58 35 31 81 66 103 77 21 12 40 29 42 39 2 10 -10 49 -27 86 -41 88 -57
166 -42 203 15 37 44 35 76 -7 45 -59 65 -127 66 -224 0 -48 5 -112 10 -142
22 -132 22 -184 1 -226 -36 -70 -90 -104 -165 -104 -44 0 -87 -27 -87 -54 0
-32 15 -42 91 -63 53 -14 106 -17 299 -17 377 0 658 48 724 122 30 34 119 62
235 73 137 14 171 28 171 68 0 18 -9 40 -21 52 -19 19 -30 21 -86 16 -53 -4
-84 -15 -176 -62 -101 -52 -118 -58 -172 -58 -33 0 -114 14 -180 31 -228 58
-278 86 -332 189 -40 76 -83 197 -83 234 0 78 56 117 212 150 129 26 143 25
184 -16 52 -52 125 -61 137 -16 12 46 176 129 311 158 235 49 672 -129 638
-261 -9 -33 -98 -115 -154 -141 -42 -20 -69 -25 -133 -25 -89 0 -99 -4 -114
-42 -10 -27 0 -123 15 -151 23 -40 49 -57 88 -57 57 0 97 27 201 136 77 80 95
94 122 94 58 0 109 -59 139 -161 18 -60 52 -87 89 -71 39 18 52 51 60 152 4
52 13 110 21 129 14 33 15 33 34 16 51 -46 51 -140 0 -203 -17 -22 -30 -48
-28 -59 3 -16 14 -18 88 -18 48 0 94 -5 106 -12 31 -18 101 -130 135 -215 20
-52 28 -91 29 -135 0 -59 1 -63 22 -60 20 2 24 -5 34 -56 12 -60 28 -87 50
-87 35 0 67 -27 95 -82 16 -31 39 -62 51 -69 50 -27 240 18 370 88 40 21 54
34 56 54 4 34 -24 46 -129 54 -111 8 -161 27 -204 77 -46 55 -70 123 -90 254
-21 142 -41 222 -68 266 -12 20 -35 57 -50 82 -43 69 -98 232 -103 306 -4 54
-2 71 15 97 28 44 60 63 118 70 125 14 263 -88 263 -195 0 -46 -19 -55 -99
-47 -145 14 -151 -60 -10 -118 48 -19 74 -22 234 -23 237 -2 222 -1 250 -29
31 -30 32 -63 3 -74 -13 -5 -37 -24 -55 -43 -39 -42 -103 -147 -103 -171 0
-10 23 -39 50 -64 32 -29 54 -60 62 -84 6 -21 14 -36 19 -34 4 3 15 28 24 56
28 82 162 211 268 257 40 17 58 15 120 -13 65 -30 186 -55 266 -55 73 0 151
-23 179 -52 28 -31 61 -106 64 -149 l3 -34 -88 0 c-85 0 -90 -1 -113 -28 -32
-38 -32 -91 2 -140 39 -58 31 -74 -75 -144 -118 -78 -159 -117 -172 -168 -21
-77 -207 -235 -413 -350 -35 -20 -112 -53 -169 -74 -121 -44 -165 -68 -279
-154 -147 -110 -243 -217 -195 -217 19 0 148 37 302 86 195 63 365 104 463
111 56 4 90 12 104 23 l21 17 -22 22 c-20 20 -29 22 -72 16 -40 -6 -50 -4 -55
9 -10 26 3 59 47 125 31 47 53 68 93 88 28 14 141 87 251 161 110 74 232 150
270 169 122 57 294 80 369 49 25 -10 37 -24 46 -53 45 -139 103 -160 152 -55
18 37 28 47 47 47 30 0 85 -67 102 -125 11 -34 10 -43 -5 -59 -26 -28 -53
-107 -75 -221 -12 -56 -21 -109 -21 -118 0 -13 22 -14 183 -9 242 8 331 31
359 92 6 13 7 36 4 51 -16 61 -215 234 -271 234 -32 0 -62 39 -79 102 -19 75
-10 108 36 131 58 29 101 15 167 -52 38 -38 72 -62 106 -74 28 -10 69 -25 93
-34 77 -27 91 -47 102 -142 11 -95 24 -121 82 -159 83 -55 116 -94 123 -147
13 -105 7 -100 155 -124 130 -21 260 -113 275 -195 8 -38 43 -75 127 -133 81
-55 97 -106 42 -131 -60 -28 -101 -11 -206 84 -102 92 -236 180 -305 199 -93
27 -105 36 -159 118 -65 98 -87 122 -149 158 -65 37 -136 40 -159 7 -23 -32
-20 -89 6 -128 24 -34 36 -42 181 -110 49 -23 123 -70 165 -104 156 -125 244
-188 522 -371 277 -183 366 -235 403 -235 20 0 97 -76 97 -96 0 -8 -22 -30
-50 -50 -89 -64 -61 -96 109 -124 160 -27 186 -44 227 -154 33 -86 75 -132
130 -141 90 -15 127 -36 210 -121 81 -82 118 -104 184 -104 48 0 130 -49 213
-127 109 -103 131 -113 245 -111 84 1 96 -1 156 -31 68 -33 103 -67 111 -108
3 -12 7 -35 10 -49 8 -35 49 -50 170 -64 122 -13 166 -33 177 -77 14 -55 31
-59 368 -73 229 -10 339 -27 372 -57 23 -20 43 -93 68 -241 39 -229 84 -302
188 -302 48 0 67 -19 81 -80 14 -65 43 -86 128 -93 109 -9 138 -25 160 -89 29
-86 76 -171 106 -193 23 -16 44 -20 114 -20 85 0 85 0 114 -34 33 -40 91 -173
122 -281 11 -41 23 -77 24 -80 2 -2 23 6 47 19 92 51 177 -26 195 -174 15
-127 78 -140 179 -37 28 29 36 33 65 27 96 -21 257 -127 447 -294 133 -117
244 -181 315 -181 60 0 75 17 87 95 3 18 10 20 86 16 77 -3 88 -1 147 28 80
40 162 125 170 179 14 83 18 93 42 109 42 28 121 43 319 59 247 20 253 19 284
-88 31 -104 62 -160 114 -205 103 -91 201 -87 501 21 95 34 106 36 232 36 184
0 187 14 14 74 -260 91 -415 107 -463 49 -8 -10 -13 -42 -13 -82 0 -53 -3 -66
-17 -69 -28 -5 -43 61 -43 190 0 130 13 163 71 181 60 18 106 41 115 59 24 45
-18 81 -118 99 -63 12 -119 37 -145 65 -31 35 -41 79 -48 229 -12 227 -66 440
-174 680 -20 44 -36 88 -36 98 0 28 53 73 107 91 74 25 98 21 148 -25 25 -23
52 -39 62 -37 24 4 74 88 80 134 4 32 -1 47 -26 84 -51 76 -37 103 41 78 55
-18 72 -49 57 -104 -35 -124 62 -294 166 -294 36 0 82 -26 90 -50 7 -21 -17
-70 -33 -70 -5 0 -23 -14 -40 -31 -23 -23 -32 -40 -32 -65 0 -44 33 -66 112
-75 73 -9 91 -24 91 -80 0 -52 -28 -79 -80 -79 -48 0 -83 -37 -83 -87 0 -42
24 -101 64 -160 33 -48 33 -75 -3 -115 -40 -46 -51 -71 -51 -113 0 -64 50
-129 122 -159 54 -23 158 -20 239 6 l67 21 48 -31 c31 -21 60 -32 83 -32 55 0
81 -10 81 -30 0 -10 -11 -54 -25 -97 -13 -43 -30 -98 -36 -122 -7 -29 -23 -56
-46 -77 -33 -30 -35 -36 -43 -123 -10 -104 -25 -136 -75 -157 -48 -20 -75 -59
-75 -108 0 -62 21 -86 76 -86 60 0 78 -11 100 -62 15 -37 18 -72 19 -241 0
-197 0 -199 24 -218 13 -10 31 -19 41 -19 43 0 80 -94 80 -203 0 -63 -27 -232
-41 -258 -14 -27 -27 -24 -62 18 -71 81 -87 88 -87 37 0 -40 38 -104 102 -171
68 -70 109 -93 166 -93 72 0 119 -63 75 -102 -29 -26 -87 -37 -134 -27 -59 14
-79 5 -79 -36 0 -36 30 -73 103 -128 42 -32 45 -47 17 -92 -22 -36 -28 -83
-16 -132 7 -29 3 -37 -33 -75 -43 -44 -61 -88 -61 -149 0 -59 -28 -136 -57
-159 -38 -30 -22 -50 61 -77 37 -12 74 -27 82 -34 21 -17 17 -73 -13 -179 -14
-52 -28 -112 -31 -132 -4 -39 -3 -40 63 -50 27 -4 50 -48 42 -80 -15 -60 -67
-73 -146 -38 -69 32 -71 30 -71 -57 0 -60 -5 -86 -20 -110 -33 -56 -90 -79
-90 -38 0 24 -46 48 -79 40 -68 -15 -63 -65 11 -111 76 -47 84 -78 22 -90 -52
-10 -101 4 -140 38 -28 25 -40 29 -52 22 -23 -15 -33 -61 -27 -124 10 -90 33
-147 71 -176 29 -23 34 -32 34 -68 0 -56 -30 -102 -72 -111 -51 -11 -143 -83
-259 -202 -111 -114 -144 -161 -134 -193 6 -20 16 -24 76 -34 73 -12 91 -72
45 -141 -33 -48 -33 -89 -1 -120 30 -31 84 -34 109 -7 9 11 20 49 25 90 10 82
15 92 42 92 30 0 42 -43 29 -103 -15 -72 -51 -138 -120 -219 -72 -86 -110
-158 -110 -211 0 -51 12 -72 81 -137 88 -84 91 -138 10 -152 -23 -4 -61 -18
-84 -30 -62 -34 -62 -64 3 -185 61 -113 74 -150 56 -160 -23 -14 -36 -51 -36
-105 0 -113 -25 -148 -104 -148 -17 0 -37 -5 -44 -12 -34 -34 6 -87 107 -142
132 -73 139 -94 55 -176 -78 -78 -98 -112 -92 -164 3 -23 39 -115 82 -205 42
-90 76 -166 76 -170 0 -4 -30 -54 -67 -112 -177 -278 -208 -429 -96 -475 33
-14 34 -16 18 -34 -48 -53 -124 -62 -247 -29 -117 32 -279 117 -690 362 -191
113 -220 122 -306 88 -94 -37 -158 -27 -458 69 -82 27 -179 54 -215 61 -67 12
-76 10 -163 -37 -26 -15 -30 -15 -54 3 -72 54 -33 203 58 222 22 4 36 13 38
25 5 24 -26 56 -53 56 -26 0 -85 -37 -140 -90 -53 -50 -134 -110 -163 -121
-18 -7 -33 -3 -65 15 -23 14 -64 30 -92 36 -65 14 -128 52 -245 144 -140 111
-197 139 -295 143 -93 5 -130 -9 -130 -47 0 -17 13 -34 43 -57 67 -51 122 -57
122 -13 0 25 11 25 44 -1 41 -32 69 -96 70 -157 1 -72 -22 -92 -105 -92 -75 0
-117 17 -152 64 -21 27 -35 36 -58 36 -37 0 -51 -31 -42 -95 5 -40 4 -45 -13
-45 -11 0 -32 14 -46 31 -24 27 -31 29 -65 23 -21 -4 -69 -18 -107 -31 -100
-33 -120 -31 -152 16 -40 61 -79 75 -221 79 -151 5 -159 -3 -89 -78 25 -27 46
-54 46 -59 0 -17 -69 -24 -110 -12 -20 6 -68 34 -106 62 -85 63 -160 101 -261
135 -95 31 -284 64 -364 64 -52 0 -59 -2 -59 -20 0 -10 21 -42 46 -71 70 -78
85 -145 41 -174 -29 -19 -67 -9 -201 52 -54 24 -131 51 -170 59 -68 15 -149
56 -178 91 -26 32 -102 73 -136 73 -18 0 -86 -23 -150 -50 -163 -71 -166 -72
-177 -104 -15 -44 19 -66 104 -66 l66 -1 -57 -30 c-152 -78 -325 -77 -548 3
-47 16 -101 32 -120 35 l-34 6 17 -24 c30 -41 49 -91 43 -115 -14 -54 -190
-94 -270 -60 -51 21 -76 21 -76 -2 0 -63 -102 -54 -262 23 -81 39 -143 45
-183 19 -57 -37 -24 -67 193 -179 62 -32 129 -73 150 -91 l37 -32 -30 -12
c-24 -10 -91 -9 -335 6 -168 11 -407 19 -531 19 -239 0 -254 -3 -261 -48 -5
-32 -59 -39 -206 -27 -239 20 -371 24 -385 11 -8 -6 -17 -36 -20 -67 -3 -31
-10 -61 -15 -66 -7 -7 -44 1 -104 21 -51 18 -113 34 -138 37 l-45 5 30 -23
c63 -48 105 -91 105 -106 0 -17 -61 -14 -360 14 -111 11 -216 15 -320 11 -118
-4 -164 -2 -188 9 -18 7 -32 18 -32 24 0 13 -57 13 -65 0 -10 -16 -75 -46
-127 -59 -27 -6 -147 -16 -268 -21 -223 -10 -298 -23 -287 -52 9 -26 -15 -48
-70 -64 -55 -16 -99 -16 -230 2 -52 7 -53 1 -23 -108 11 -40 20 -101 20 -135
0 -34 4 -73 10 -87 19 -50 73 -25 123 56 10 15 28 35 41 43 36 24 132 36 220
29 l80 -7 -40 -16 c-75 -31 -107 -53 -192 -133 -92 -86 -135 -111 -179 -102
-37 7 -73 -21 -118 -92 -39 -61 -78 -89 -135 -98 -46 -7 -70 -36 -70 -83 0
-43 33 -78 94 -100 65 -24 96 -77 96 -167 0 -87 -21 -124 -92 -161 -72 -37
-82 -30 -98 70 -12 78 -31 115 -59 115 -70 0 -377 -44 -430 -61 -35 -12 -87
-21 -117 -20 -58 0 -80 -13 -90 -55 -9 -35 0 -39 58 -27 65 13 110 2 139 -35
29 -37 22 -106 -15 -163 l-28 -41 -66 6 c-127 13 -442 -24 -473 -55 -18 -18
-17 -21 6 -84 32 -85 32 -154 1 -221 -59 -127 -136 -136 -646 -75 -238 28
-320 44 -320 59 0 4 7 16 15 26 41 54 -9 146 -86 160 -21 4 -57 24 -88 51 -62
53 -99 58 -136 20 -18 -17 -25 -35 -25 -64 0 -49 -31 -77 -96 -87 -59 -8 -70
3 -53 50 10 27 10 42 3 54 -18 27 -58 37 -93 22 l-31 -12 0 -987 0 -986 112
-1 c137 -2 251 -25 456 -95 499 -170 565 -260 642 -879 30 -236 55 -354 89
-419 42 -81 54 -152 49 -272 -4 -89 -9 -115 -36 -176 -37 -83 -43 -143 -13
-143 18 0 68 48 103 100 l17 25 0 -38 c1 -59 20 -124 62 -216 45 -98 69 -181
69 -242 0 -65 25 -156 69 -261 22 -51 42 -111 46 -133 12 -77 16 -87 49 -118
42 -40 66 -110 106 -314 53 -267 81 -335 206 -511 125 -175 199 -332 243 -517
13 -53 35 -85 59 -85 30 0 79 -65 102 -135 28 -87 94 -215 148 -287 59 -77 72
-116 69 -193 -2 -66 -1 -67 37 -102 38 -35 40 -36 101 -30 41 4 66 2 74 -6 16
-16 14 -144 -4 -205 -9 -28 -31 -70 -50 -94 -56 -69 -70 -102 -59 -139 14 -48
51 -70 144 -83 109 -15 114 -23 114 -160 0 -120 -13 -157 -60 -167 -61 -12
-63 -17 -31 -133 21 -74 192 -294 213 -273 4 4 1 31 -6 61 -14 61 -9 89 17 84
49 -9 78 -152 53 -269 -12 -56 -12 -62 7 -80 12 -13 45 -25 86 -32 84 -14 98
-3 105 77 9 114 37 17 52 -183 12 -159 31 -202 109 -247 30 -17 95 -74 145
-126 64 -67 109 -104 151 -126 84 -42 104 -66 116 -143 13 -82 51 -145 114
-188 45 -30 55 -33 103 -28 l52 6 0 -68 c0 -70 -2 -66 66 -159 23 -31 44 -124
44 -197 0 -83 15 -130 56 -175 35 -39 106 -80 137 -80 60 0 80 121 30 181 -15
17 -50 42 -78 54 -93 42 -90 32 -89 314 1 330 21 486 70 544 13 16 24 39 24
53 0 14 10 30 25 40 21 14 38 14 132 5 100 -10 583 -51 603 -51 6 0 5 11 0 26
-16 41 -11 125 9 169 32 70 120 135 181 135 13 0 27 12 38 31 62 115 175 163
295 127 32 -10 41 -10 45 0 10 32 60 76 116 104 57 27 76 31 286 48 330 28
845 55 1600 85 754 30 1062 51 1435 96 860 103 1415 178 1653 224 605 115
1082 226 1567 364 319 90 474 131 504 131 27 0 26 -14 -4 -98 -14 -38 -25 -72
-25 -75 0 -15 213 209 225 237 47 111 171 169 287 134 54 -16 122 -79 144
-133 13 -32 24 -44 34 -41 8 3 33 12 55 20 22 8 52 15 66 16 l26 0 5 118 c6
118 24 188 50 196 7 3 26 7 42 11 l29 6 -7 69 c-5 63 -4 71 18 97 13 16 36 35
50 42 36 20 39 37 11 67 -33 35 -39 87 -32 273 5 161 25 285 57 358 10 23 28
82 39 130 43 180 67 243 111 293 34 38 60 96 61 132 1 61 10 71 80 84 35 6 70
9 77 7 9 -4 12 -31 10 -104 -1 -60 2 -103 9 -110 6 -6 28 -9 49 -7 49 4 64 30
64 116 0 44 4 64 14 68 8 3 47 -15 87 -40 40 -25 81 -46 91 -46 10 0 29 18 43
41 43 67 122 84 135 28 7 -29 43 -49 91 -49 54 0 73 19 66 65 l-6 37 41 -6
c44 -7 68 5 68 34 0 17 28 32 80 44 18 4 32 21 52 63 17 37 52 82 95 125 142
140 159 158 191 197 18 22 53 49 78 61 35 17 56 40 103 111 34 50 63 105 66
126 19 110 36 130 260 305 l150 118 35 92 c29 79 44 102 95 155 33 33 76 87
95 118 52 85 118 150 185 186 33 17 83 46 110 64 60 38 205 123 218 128 6 2
18 95 29 207 21 231 37 313 74 375 16 28 29 72 36 117 11 81 29 124 91 215 23
34 51 77 62 95 16 25 28 33 50 34 47 1 48 1 110 54 32 27 102 72 155 99 l98
49 43 -14 c35 -13 128 -15 543 -15 276 0 562 -5 636 -10 175 -12 390 -53 453
-87 69 -37 284 -261 358 -374 33 -51 68 -102 77 -112 16 -18 16 -18 -8 -6 -57
30 -138 90 -162 122 -14 18 -28 50 -32 70 -7 39 -43 68 -84 68 -40 0 -174 40
-199 60 -38 29 -87 40 -130 28 -26 -7 -58 -32 -103 -78 -36 -38 -76 -71 -90
-74 -14 -3 -45 -9 -70 -14 l-45 -9 30 -11 c63 -24 80 -37 80 -62 0 -22 -5 -25
-38 -28 -42 -4 -84 21 -107 62 -16 31 -24 32 -50 6 -12 -12 -20 -33 -20 -55 0
-54 -30 -76 -153 -110 -72 -20 -94 -41 -102 -99 -10 -63 -29 -76 -126 -87
-172 -20 -258 -88 -373 -299 -65 -119 -70 -122 -180 -118 l-91 3 -20 -44 c-64
-138 -80 -164 -117 -183 -20 -11 -68 -22 -108 -25 -53 -4 -79 -12 -99 -28 -14
-12 -43 -32 -64 -44 l-37 -23 29 -34 c34 -38 48 -92 32 -123 -29 -53 -166
-101 -293 -101 -93 0 -102 -9 -86 -83 12 -56 0 -77 -41 -77 -31 0 -71 -25 -71
-45 0 -7 -7 -21 -16 -29 -22 -23 -50 -4 -58 39 l-7 36 -39 -31 c-31 -24 -44
-47 -69 -116 -51 -140 -53 -143 -172 -224 -107 -73 -228 -181 -234 -210 -3
-15 -19 -49 -36 -74 -16 -26 -29 -50 -29 -53 0 -4 -38 -64 -85 -134 -85 -127
-120 -164 -182 -189 -18 -7 -42 -27 -54 -46 -11 -19 -46 -53 -77 -77 -46 -35
-58 -49 -60 -76 -2 -21 2 -37 12 -44 10 -8 19 -42 26 -101 7 -68 18 -108 45
-164 20 -43 33 -83 30 -93 -8 -25 -74 -64 -86 -52 -6 6 -18 25 -27 43 -9 19
-24 37 -32 40 -35 17 -86 32 -100 31 -168 -13 -166 -13 -206 7 -21 11 -50 32
-63 46 -30 32 -46 33 -66 2 -11 -17 -14 -35 -10 -60 11 -55 -10 -102 -57 -128
-51 -29 -67 -51 -52 -75 27 -44 104 -18 188 62 66 62 100 78 149 72 45 -6 89
-43 118 -98 10 -20 33 -52 51 -71 30 -32 40 -36 106 -42 62 -6 75 -11 89 -32
27 -42 -1 -194 -35 -194 -10 0 -35 14 -56 30 -50 38 -94 47 -135 26 -43 -23
-61 -63 -61 -141 0 -140 38 -207 124 -218 55 -8 76 -21 76 -48 0 -24 -36 -24
-144 0 -85 18 -94 26 -95 89 -1 24 -5 32 -19 32 -27 0 -42 -41 -49 -132 -7
-96 -21 -117 -83 -125 -56 -7 -95 -26 -137 -66 -32 -30 -33 -30 -47 -11 -13
17 -27 19 -138 18 -130 -1 -198 -17 -198 -48 0 -20 53 -33 172 -40 185 -12
373 -60 366 -94 -2 -9 -20 -21 -43 -28 -50 -13 -81 -56 -90 -124 -16 -115 41
-190 116 -150 36 20 52 68 45 134 -3 34 -7 72 -9 86 -2 22 2 25 32 28 38 4
227 -26 254 -40 24 -12 22 -30 -13 -91 -37 -67 -38 -106 -3 -209 30 -87 27
-106 -20 -122 -21 -8 -31 -6 -46 8 -28 26 -34 65 -20 135 15 80 6 91 -70 91
-31 0 -62 -5 -69 -12 -7 -7 -12 -35 -12 -64 0 -33 -12 -85 -31 -141 -37 -106
-123 -274 -155 -304 l-24 -22 -24 22 c-13 13 -27 34 -30 47 -11 43 -26 26 -25
-28 1 -84 15 -150 35 -165 11 -8 45 -13 86 -13 83 0 122 -17 137 -61 26 -75
20 -80 -168 -109 -178 -29 -265 -59 -323 -113 -39 -36 -37 -75 5 -118 19 -19
41 -56 50 -82 9 -26 24 -68 33 -93 9 -25 30 -59 46 -76 31 -32 32 -54 2 -126
-17 -41 -37 -41 -114 -2 -139 70 -209 15 -232 -182 -19 -166 -46 -249 -121
-372 -42 -68 -73 -158 -82 -236 -6 -46 -3 -60 12 -79 19 -23 22 -24 92 -13 51
7 85 19 118 41 56 37 122 58 211 67 l66 7 -23 -31 c-26 -38 -64 -66 -150 -112
-79 -43 -98 -68 -111 -145 -6 -36 -17 -65 -27 -72 -26 -20 -82 -15 -148 12
-89 37 -120 34 -189 -20 -32 -25 -77 -50 -100 -56 -83 -21 -91 -25 -94 -40 -6
-32 26 -49 92 -49 52 0 70 -5 109 -30 56 -35 107 -103 107 -141 0 -31 -30 -57
-103 -88 -77 -33 -82 -50 -70 -213 5 -77 8 -151 5 -164 -11 -60 -72 15 -72 89
0 76 -41 102 -79 49 -11 -16 -34 -64 -51 -108 -35 -87 -77 -161 -121 -212 -41
-46 -38 -84 15 -200 83 -183 82 -248 -6 -291 -52 -25 -85 -26 -152 -6 -86 26
-91 -12 -12 -81 30 -25 56 -55 59 -65 10 -37 -94 -276 -163 -373 -32 -45 -52
-113 -74 -256 -47 -292 -60 -558 -30 -591 9 -10 18 -37 21 -61 8 -70 22 -98
55 -105 15 -3 31 -9 34 -14 11 -18 -51 -59 -127 -84 -135 -45 -165 -88 -157
-221 4 -58 11 -82 32 -115 20 -30 25 -44 16 -49 -6 -4 -55 -10 -109 -13 -96
-5 -158 -22 -193 -54 -13 -11 -18 -31 -18 -67 0 -58 -23 -110 -75 -174 -99
-123 34 -178 212 -88 79 39 108 44 117 20 16 -42 -63 -133 -134 -155 -67 -20
-90 -32 -90 -44 0 -23 33 -29 170 -30 74 -1 145 -5 157 -9 49 -16 34 -117 -27
-178 -49 -49 -73 -48 -135 3 -81 67 -147 86 -191 54 -35 -24 -46 -67 -43 -158
4 -73 7 -88 32 -120 40 -53 79 -69 187 -78 75 -7 107 -15 157 -39 73 -36 106
-81 80 -107 -8 -9 -44 -18 -80 -22 -76 -8 -110 -28 -136 -79 -24 -48 -51 -71
-114 -102 -64 -31 -67 -46 -27 -131 46 -99 37 -149 -28 -149 -28 0 -52 -32
-58 -76 -12 -95 -16 -105 -39 -120 -18 -12 -28 -13 -44 -5 -45 24 -46 121 -2
246 30 84 28 107 -6 103 -21 -2 -28 2 -33 22 -13 54 -100 24 -100 -35 0 -23
-3 -25 -49 -25 -53 0 -61 -8 -61 -60 0 -18 11 -42 30 -63 34 -40 50 -76 50
-118 0 -40 16 -68 45 -79 21 -8 24 -14 19 -39 -15 -73 123 -201 172 -160 11 9
15 28 14 68 -1 31 -2 63 -1 73 1 18 49 38 90 38 74 0 161 -51 161 -95 0 -31
-16 -41 -81 -49 -123 -13 -201 -63 -248 -156 -27 -55 -31 -74 -31 -142 0 -101
9 -118 60 -118 79 0 102 65 54 148 l-27 45 23 19 c35 28 98 42 195 42 120 -1
160 -17 175 -73 22 -83 -15 -141 -88 -141 -70 0 -265 -72 -344 -126 -39 -28
-50 -48 -68 -137 -9 -47 -18 -62 -46 -85 -49 -38 -65 -73 -70 -156 -6 -81 7
-117 46 -126 52 -12 24 -86 -61 -157 -71 -60 -170 -226 -210 -353 -12 -36 -24
-112 -29 -170 -5 -76 -13 -116 -28 -147 -40 -78 -216 -237 -318 -285 -44 -21
-49 -27 -47 -53 3 -36 44 -75 78 -75 50 0 75 -85 33 -114 -35 -25 -55 -19
-107 29 -63 59 -94 60 -150 7 -87 -83 -129 -235 -102 -372 15 -74 7 -92 -58
-125 -72 -36 -104 -87 -122 -195 -6 -36 -5 -76 2 -115 17 -91 15 -107 -21
-136 -34 -29 -128 -63 -157 -57 -37 7 -25 38 41 106 36 38 66 75 66 84 0 11
-16 17 -61 22 -127 13 -168 2 -245 -66 -46 -40 -56 -68 -41 -107 9 -25 7 -43
-11 -106 -31 -106 -32 -105 33 -105 96 0 144 -43 130 -116 -7 -40 -25 -47 -81
-33 -56 14 -211 -3 -289 -32 -96 -36 -126 -71 -170 -198 -33 -99 -65 -160 -85
-166 -10 -3 -62 -44 -116 -91 -131 -112 -223 -159 -313 -159 -36 0 -81 7 -99
15 -29 13 -34 13 -42 0 -5 -8 -10 -29 -10 -46 0 -48 -19 -93 -66 -160 -74
-105 -222 -224 -280 -224 -70 0 -48 85 53 203 34 40 43 58 41 82 -2 25 -8 31
-32 33 -66 8 -178 -59 -226 -135 -38 -60 -40 -126 -6 -198 29 -61 61 -92 101
-97 29 -3 30 -5 33 -55 3 -46 0 -54 -22 -68 -32 -21 -65 -11 -167 48 -54 31
-81 40 -108 38 -163 -11 -282 3 -335 42 -15 11 -17 17 -7 35 7 13 21 22 36 22
37 0 55 10 70 41 26 49 19 75 -36 135 -65 72 -109 163 -109 226 0 26 -5 50
-11 54 -17 10 -108 9 -119 -2 -7 -7 -1 -24 20 -52 33 -46 38 -82 14 -106 -33
-34 -60 -20 -184 99 -160 152 -257 216 -348 231 -81 13 -105 -57 -54 -157 23
-45 32 -55 62 -61 37 -7 67 -40 87 -95 16 -44 1 -51 -42 -19 -52 40 -81 35
-140 -27 -61 -63 -98 -133 -93 -179 3 -30 7 -34 47 -44 101 -24 89 -105 -19
-128 -14 -3 -32 -18 -41 -34 -17 -29 -50 -42 -111 -42 -16 0 -42 -7 -58 -15
-25 -13 -30 -22 -30 -50 0 -28 5 -37 30 -50 52 -27 105 -20 149 20 21 19 43
35 48 35 29 0 50 -52 68 -173 13 -81 115 -149 170 -113 21 14 25 24 25 64 0
26 -5 64 -11 85 -14 50 6 82 62 99 39 11 43 10 59 -10 21 -26 53 -149 48 -188
-3 -25 -8 -30 -40 -35 -47 -7 -73 -31 -104 -91 -28 -55 -71 -88 -124 -95 -34
-5 -44 -1 -75 26 -29 26 -44 31 -84 31 -53 0 -101 -28 -101 -59 0 -31 30 -60
68 -66 62 -11 72 -16 88 -40 35 -53 -31 -85 -177 -85 -88 0 -136 -19 -144 -57
-13 -57 -12 -56 -68 -49 -128 15 -177 18 -177 10 0 -5 12 -27 25 -49 25 -40
32 -102 19 -152 -8 -30 -21 -29 -68 7 -34 26 -48 30 -103 30 -82 0 -104 12
-181 99 -89 99 -112 95 -112 -20 0 -132 95 -211 204 -169 40 15 32 -3 -31 -70
-60 -65 -143 -120 -180 -120 -32 0 -63 -34 -63 -69 0 -42 -34 -80 -80 -87 -51
-8 -100 -39 -100 -62 0 -28 -67 -126 -148 -217 -39 -44 -79 -94 -88 -111 -16
-30 -16 -32 6 -54 33 -33 22 -80 -33 -139 -27 -29 -47 -60 -51 -83 -10 -57
-65 -88 -153 -88 -60 0 -80 13 -94 61 -14 44 -50 89 -73 89 -22 0 -46 -40 -46
-78 0 -38 49 -263 60 -275 4 -5 66 -10 136 -12 136 -3 219 -20 219 -45 0 -12
-18 -14 -101 -11 -93 3 -104 1 -153 -24 -44 -23 -59 -26 -100 -21 -69 9 -95
-6 -146 -88 -24 -39 -67 -93 -95 -121 -56 -55 -61 -75 -25 -99 30 -19 45 -71
45 -153 0 -73 -20 -103 -71 -103 -32 0 -69 -15 -81 -34 -14 -21 -8 -79 12
-110 23 -39 49 -53 121 -70 l54 -12 -40 -21 c-79 -41 -153 -57 -260 -54 -55 2
-115 3 -133 4 -43 1 -52 -14 -52 -90 0 -72 8 -77 60 -38 49 36 65 33 86 -21
32 -84 2 -98 -266 -121 -113 -9 -190 -20 -198 -27 -21 -21 -27 -116 -9 -159
13 -29 21 -37 41 -37 31 0 66 -32 66 -61 0 -20 -4 -21 -59 -14 -78 9 -112 1
-168 -42 -58 -44 -102 -60 -232 -83 -166 -30 -241 -83 -241 -170 0 -67 -22
-81 -139 -91 -157 -14 -282 -64 -376 -150 -25 -23 -63 -77 -90 -130 -40 -74
-53 -91 -76 -96 -43 -8 -80 -55 -86 -107 -5 -40 -2 -48 25 -76 17 -16 41 -30
54 -30 30 0 44 -10 52 -37 9 -28 -19 -90 -47 -105 -32 -17 -106 -3 -224 43
-59 23 -157 59 -218 80 -60 20 -140 51 -177 68 -80 37 -101 38 -143 9 -72 -49
-100 -143 -54 -184 19 -17 35 -19 128 -16 128 3 146 -5 146 -67 0 -46 -27 -89
-70 -110 -37 -18 -75 -1 -75 34 0 38 -32 32 -75 -16 -35 -39 -37 -44 -31 -90
6 -41 3 -52 -14 -69 -18 -18 -28 -20 -63 -15 -96 17 -207 68 -227 106 -6 10
-15 19 -20 19 -5 0 -32 -45 -60 -99 -102 -199 -190 -259 -329 -224 -173 42
-337 -20 -402 -155 -13 -25 -38 -63 -56 -83 -28 -31 -42 -38 -91 -44 -31 -4
-83 -13 -114 -20 -70 -16 -94 -3 -103 53 -15 86 -36 142 -60 158 -39 25 -48
10 -40 -64 8 -72 2 -82 -50 -82 -38 0 -75 25 -75 51 0 11 7 31 16 44 15 23 15
27 -1 51 -21 32 -150 95 -210 102 -25 2 -45 1 -45 -4 0 -18 16 -33 43 -43 25
-10 28 -15 22 -40 -8 -38 7 -66 61 -114 83 -73 95 -185 24 -222 -71 -37 -112
-5 -135 103 -9 42 -25 96 -35 119 l-20 43 -59 0 c-32 0 -119 11 -192 25 -74
14 -165 26 -204 27 -62 1 -78 -3 -136 -34 -93 -50 -223 -72 -377 -65 -132 6
-170 17 -262 76 -35 23 -86 49 -113 59 -62 21 -107 70 -107 115 0 53 -20 71
-67 64 -29 -5 -49 -2 -76 12 l-37 19 0 -1814 0 -1814 23 0 c41 0 131 27 220
64 49 20 98 36 109 34 16 -2 26 -17 39 -58 10 -30 27 -62 39 -72 27 -22 114
-32 193 -24 70 9 93 18 102 45 8 25 105 75 183 96 51 13 71 14 98 5 38 -13 77
-7 138 21 55 25 91 24 154 -6 86 -40 198 -55 562 -75 788 -44 911 -62 1146
-166 68 -30 137 -54 153 -54 21 0 43 11 69 35 45 40 87 58 119 50 18 -4 23
-12 23 -39 0 -18 6 -39 14 -45 8 -7 55 -16 104 -21 103 -11 122 -17 122 -37 0
-23 -67 -179 -123 -287 -59 -113 -123 -186 -162 -186 -14 0 -34 -9 -45 -20
-39 -39 -15 -110 38 -110 32 0 98 -65 118 -115 20 -55 13 -89 -23 -103 -83
-33 -328 -43 -426 -17 -32 8 -66 15 -76 15 -45 0 -140 -141 -175 -259 -29
-100 -16 -227 26 -244 7 -3 -34 -6 -92 -6 -79 -1 -115 -6 -146 -20 -51 -23
-107 -72 -136 -119 -22 -35 -23 -49 -28 -272 -5 -250 -3 -236 -54 -305 -6 -9
1 -30 24 -65 37 -58 34 -68 -29 -89 -100 -33 -241 -19 -250 24 -5 27 -19 35
-64 35 -56 0 -104 -27 -146 -81 -39 -51 -78 -79 -109 -79 -11 0 -30 -8 -42
-18 -20 -16 -21 -21 -10 -43 7 -13 41 -54 75 -91 97 -102 107 -169 29 -184
-49 -9 -65 -38 -71 -135 -7 -95 -12 -99 -87 -75 -121 38 -173 8 -131 -74 20
-39 150 -130 185 -130 30 0 40 15 40 59 0 16 9 40 21 55 27 34 72 34 121 1 44
-30 91 -32 118 -5 20 20 25 34 34 105 8 56 27 67 108 63 53 -3 72 -8 92 -27
52 -49 38 -100 -49 -176 -73 -65 -79 -83 -40 -135 14 -19 25 -41 25 -50 0 -54
-154 -105 -194 -64 -23 22 -20 56 9 98 14 20 25 45 25 55 0 27 -34 53 -67 49
-39 -4 -51 -48 -59 -207 -10 -192 6 -221 124 -221 116 0 189 41 360 203 152
144 168 150 364 157 150 6 158 7 196 34 37 25 43 27 68 14 44 -21 63 -57 73
-136 14 -113 56 -146 129 -102 36 22 62 72 62 119 0 54 26 72 119 81 92 10
128 27 137 68 15 70 27 93 54 107 41 21 58 19 88 -13 36 -38 57 -48 121 -56
64 -8 96 -24 132 -63 38 -40 52 -71 45 -99 -10 -37 -63 -33 -119 10 -60 46
-81 56 -115 56 -58 0 -80 -58 -39 -105 18 -21 50 -32 186 -66 90 -22 180 -39
200 -37 32 3 36 7 44 41 6 23 24 51 47 74 48 44 76 108 91 203 14 91 3 128
-33 109 -13 -6 -44 -31 -69 -55 -59 -54 -114 -71 -164 -50 -30 13 -35 20 -35
47 0 27 12 44 70 101 l71 69 -2 91 c-1 75 2 94 18 117 54 71 155 99 317 85 56
-4 137 -8 181 -8 l80 -1 0 48 c0 43 4 52 35 78 85 73 113 106 146 175 19 40
39 76 44 79 5 3 26 -17 47 -44 57 -75 67 -69 61 37 -6 104 -22 141 -69 156
-24 8 -34 17 -34 31 0 25 48 31 128 16 91 -17 107 -3 123 99 8 56 27 94 56
114 75 53 126 -37 79 -140 -13 -28 -39 -56 -75 -83 -31 -23 -56 -47 -56 -54 0
-7 12 -34 26 -62 20 -40 24 -59 19 -95 -8 -56 3 -86 46 -128 53 -52 63 -45 54
41 -17 143 -10 173 58 255 50 60 78 123 87 199 5 38 15 72 25 82 15 15 18 14
36 -8 10 -13 19 -30 19 -37 0 -8 11 -19 24 -26 20 -8 31 -7 58 9 41 24 95 102
104 151 19 112 40 148 117 196 56 36 83 83 97 170 6 38 15 77 20 87 31 57 81
66 108 19 23 -40 36 -33 44 25 9 62 32 93 96 128 29 16 52 31 52 35 0 4 -14
13 -30 19 -17 6 -30 18 -30 27 0 22 40 46 77 46 45 0 83 19 83 43 0 26 -28 46
-65 47 -65 3 -69 15 -10 34 83 26 128 24 166 -8 22 -18 38 -25 53 -21 33 10
62 49 70 94 4 28 20 56 51 91 87 98 51 146 -104 138 -71 -3 -99 -10 -155 -36
-38 -18 -71 -30 -74 -28 -2 3 8 21 23 40 22 29 26 43 22 71 -4 25 -2 35 8 35
7 0 16 8 20 18 15 36 16 215 2 422 -8 118 -13 217 -11 219 2 2 43 -1 92 -8 94
-12 182 -15 182 -6 0 3 -8 15 -18 26 -23 24 -42 84 -42 134 0 30 -7 44 -37 71
-36 33 -36 34 -24 76 24 85 44 128 58 128 8 0 34 -16 57 -35 55 -45 90 -46
115 -4 46 75 35 145 -33 229 -25 29 -44 55 -42 57 2 2 35 -3 74 -12 105 -22
127 -9 181 105 35 73 41 139 15 161 -12 10 -22 10 -50 0 -46 -17 -64 -9 -94
41 -67 111 -63 137 17 120 55 -12 89 -7 117 17 52 45 60 163 21 315 -35 136
-34 151 14 176 22 11 85 62 141 115 131 122 186 149 338 170 139 19 180 33
204 65 39 53 -2 78 -98 61 -91 -17 -124 -15 -124 9 0 46 41 128 85 168 27 24
45 50 45 62 0 12 -13 55 -29 95 -17 42 -27 82 -24 94 12 45 97 65 152 36 41
-21 81 -72 81 -103 0 -46 18 -94 47 -124 23 -24 27 -39 32 -106 7 -88 20 -112
62 -112 22 0 34 8 50 32 17 28 20 44 16 108 -3 42 -14 98 -26 128 -30 74 -27
118 10 176 24 38 26 47 12 41 -46 -19 -52 -17 -60 11 -12 46 -7 127 11 161 27
54 119 103 191 103 59 0 65 -24 50 -200 -7 -95 -7 -95 20 -120 38 -36 95 -33
160 7 28 17 65 34 84 37 l33 6 -5 -63 c-4 -34 -6 -64 -6 -66 -1 -3 -14 8 -31
24 -16 16 -33 25 -37 22 -13 -14 -16 -184 -3 -222 7 -21 34 -61 60 -90 56 -62
74 -109 65 -168 -12 -69 -45 -150 -76 -182 -36 -38 -36 -55 -3 -89 34 -33 49
-33 89 3 35 30 101 49 117 33 6 -6 -2 -18 -21 -31 -17 -13 -31 -27 -31 -32 0
-5 20 -18 44 -29 94 -40 79 -91 -41 -150 -111 -54 -123 -68 -123 -141 0 -110
68 -319 104 -319 19 0 62 -52 92 -112 28 -56 97 -128 167 -176 26 -18 45 -37
42 -42 -3 -6 -30 -10 -60 -10 -34 0 -55 -5 -58 -13 -2 -7 -15 -87 -28 -177
-22 -165 -21 -220 6 -220 39 0 61 -104 31 -146 -22 -29 -49 -7 -58 46 -9 50
-19 63 -44 58 -35 -6 -54 -65 -54 -164 0 -84 -2 -94 -30 -135 -35 -53 -27 -66
31 -51 72 18 99 -2 148 -113 65 -143 114 -153 185 -36 44 71 98 121 131 121
38 0 31 -20 -36 -104 -47 -58 -62 -86 -66 -119 -8 -61 -19 -75 -61 -83 -20 -4
-43 -11 -51 -17 -23 -19 -32 -56 -20 -80 24 -45 54 -48 93 -12 29 27 43 27 97
-1 59 -30 76 -138 38 -239 -26 -71 -73 -118 -132 -134 -25 -7 -55 -24 -67 -36
-20 -21 -21 -30 -15 -84 9 -77 24 -91 66 -60 20 14 52 24 85 27 63 5 153 -14
161 -35 3 -8 -11 -47 -31 -86 -32 -63 -37 -82 -39 -155 -4 -85 -14 -109 -41
-99 -15 6 -30 33 -57 105 -13 36 -42 57 -65 48 -42 -16 -57 -142 -25 -211 27
-59 62 -87 122 -96 70 -11 82 -23 76 -77 -8 -71 -20 -77 -152 -75 -129 3 -137
-2 -83 -55 45 -42 106 -67 214 -87 89 -16 154 -44 154 -66 0 -6 -19 -27 -41
-47 -42 -37 -89 -120 -89 -157 0 -11 -9 -39 -19 -62 -38 -82 -100 -60 -109 39
-3 42 1 67 22 115 32 77 33 103 5 103 -15 0 -26 -14 -45 -57 -14 -32 -38 -71
-54 -88 -16 -16 -38 -51 -49 -76 -42 -93 -65 -229 -41 -229 18 0 65 27 81 46
24 30 91 54 150 54 49 0 57 -3 67 -24 20 -44 129 -46 201 -5 l33 20 -6 -98
c-10 -137 -34 -299 -53 -347 -8 -23 -17 -55 -20 -72 -10 -61 52 -241 99 -291
40 -43 118 -39 118 5 0 8 -23 36 -51 62 -62 57 -61 64 22 158 53 59 89 107
124 167 10 17 13 17 57 -3 51 -22 78 -61 78 -112 0 -49 -24 -92 -79 -141 -44
-40 -51 -52 -51 -83 0 -45 -16 -78 -210 -426 -155 -280 -202 -355 -226 -364
-20 -8 -71 -92 -158 -260 -92 -179 -178 -311 -275 -426 -40 -47 -84 -106 -97
-132 -18 -36 -36 -53 -76 -75 -68 -36 -127 -111 -202 -253 -142 -267 -294
-443 -420 -486 -56 -19 -73 -43 -93 -128 -15 -66 -44 -116 -67 -116 -25 0 -45
-36 -55 -97 -11 -69 -42 -141 -101 -231 -68 -106 -150 -183 -150 -141 0 6 17
38 37 70 27 44 38 74 41 114 5 65 -11 79 -62 50 -84 -48 -136 -132 -136 -223
0 -62 9 -81 61 -139 51 -55 51 -85 1 -151 -81 -108 -204 -224 -267 -253 -22
-10 -57 -19 -78 -19 -48 0 -53 -13 -37 -101 14 -80 8 -115 -19 -124 -31 -9
-84 19 -120 63 -36 46 -61 58 -91 42 -44 -23 -32 -108 19 -134 14 -8 45 -17
68 -21 22 -3 49 -15 59 -26 15 -16 16 -25 6 -57 -18 -60 -88 -160 -172 -247
-82 -84 -108 -126 -134 -214 -9 -30 -23 -65 -31 -77 -22 -34 -81 -47 -146 -33
-47 10 -62 19 -114 74 -33 34 -70 68 -82 74 -31 16 -78 14 -93 -4 -16 -20 0
-45 81 -121 77 -73 145 -164 154 -205 11 -51 -15 -70 -92 -67 -48 2 -66 -1
-73 -12 -5 -8 -10 -59 -10 -112 0 -53 -4 -100 -10 -103 -5 -3 -26 5 -46 19
-61 41 -68 20 -24 -80 22 -50 22 -51 5 -90 -31 -66 -477 -500 -632 -616 -49
-35 -59 -52 -131 -196 -89 -179 -169 -310 -215 -348 -30 -25 -35 -26 -106 -20
l-74 7 7 -47 c11 -84 -45 -150 -176 -208 -58 -26 -90 -58 -81 -82 4 -10 24
-14 73 -14 62 0 71 -2 89 -26 40 -51 16 -84 -63 -84 -47 0 -56 -15 -56 -91 0
-66 0 -67 -30 -72 -48 -10 -76 -34 -124 -105 -24 -37 -119 -155 -211 -262
-251 -293 -341 -421 -360 -509 -4 -18 -29 -67 -56 -109 -50 -76 -64 -132 -34
-132 8 0 44 24 79 54 63 54 64 54 105 44 36 -9 47 -8 89 14 38 19 67 51 157
169 60 80 176 222 256 315 81 93 165 195 187 227 44 63 68 146 57 197 -5 21 0
41 18 72 14 24 30 60 37 80 15 48 81 138 177 241 129 138 307 350 532 632 118
149 310 383 426 520 484 572 747 909 777 998 14 42 105 171 228 327 54 69 114
151 132 184 18 32 79 126 135 210 309 459 503 752 614 929 188 300 453 699
679 1022 248 353 435 635 542 815 116 193 273 428 423 630 179 240 187 253
230 355 55 134 214 464 540 1120 357 718 420 864 440 1019 5 37 15 57 41 84
31 32 34 41 36 101 4 106 -2 178 -17 221 l-14 40 42 -28 c60 -41 84 -47 108
-26 36 32 63 176 43 228 -3 9 -36 36 -73 61 -36 24 -109 82 -161 129 -52 46
-120 100 -150 118 -52 31 -59 33 -138 31 -76 -3 -83 -1 -77 15 24 62 6 119
-68 223 -59 82 -73 205 -83 709 -10 493 12 744 77 906 40 100 47 185 25 314
-27 154 -30 269 -10 430 14 121 18 237 19 705 1 489 3 566 17 605 25 68 31
230 19 490 -13 277 -27 430 -47 520 -74 337 -109 921 -85 1430 19 397 40 534
104 673 64 138 143 225 599 662 194 187 421 407 504 490 188 188 324 363 324
419 0 11 81 100 203 220 131 131 214 221 237 260 113 190 199 302 394 516 125
137 185 254 317 622 106 298 124 334 201 410 55 54 74 83 137 212 78 161 111
214 179 290 54 62 77 107 85 168 7 48 47 141 67 153 25 16 63 117 86 228 31
149 99 384 155 537 89 244 109 306 109 335 0 29 28 102 103 270 49 108 83 241
108 415 25 180 79 433 125 592 71 244 95 363 129 631 57 443 68 493 155 672
32 66 82 184 110 262 66 179 103 244 150 260 25 9 118 12 325 10 279 -2 293
-1 358 21 l68 23 45 -22 c86 -41 165 -11 299 115 58 55 130 109 203 153 63 37
147 98 188 136 l74 67 63 0 c90 0 117 20 168 130 16 36 48 86 70 112 60 71 72
108 59 173 -13 64 -4 93 66 192 62 89 111 140 154 163 89 46 240 172 438 364
131 128 147 159 168 331 9 72 25 168 35 215 26 112 37 229 49 550 6 146 13
279 15 295 7 51 5 647 -3 695 l-7 44 87 59 c95 63 287 240 342 316 19 26 44
73 56 104 12 32 38 81 57 110 20 28 46 75 59 102 59 127 122 427 131 620 6
131 -3 175 -36 175 -27 0 -32 -10 -48 -102 -25 -145 -113 -350 -247 -576 -104
-174 -305 -442 -331 -442 -8 0 -42 -22 -78 -49 -59 -45 -65 -48 -88 -35 -60
33 -138 4 -174 -65 -22 -44 -55 -337 -55 -499 0 -139 -8 -274 -27 -442 -4 -41
-7 -111 -6 -155 8 -291 6 -350 -11 -395 -9 -25 -24 -90 -31 -145 -12 -81 -26
-126 -75 -240 -34 -77 -71 -150 -83 -163 -12 -13 -49 -38 -82 -54 -42 -21 -88
-59 -155 -127 -52 -54 -183 -187 -290 -297 -207 -211 -385 -418 -515 -599
-112 -156 -173 -213 -265 -249 -167 -66 -213 -87 -306 -146 l-97 -61 -46 32
c-71 50 -89 69 -102 106 -9 27 -8 38 5 58 8 13 25 26 36 30 33 11 51 59 57
158 5 100 37 215 83 307 54 108 62 144 65 310 2 130 6 171 28 250 73 272 98
380 107 463 7 63 18 107 36 142 19 37 27 74 34 147 6 76 14 110 35 150 34 64
51 144 70 333 35 334 64 475 104 513 23 21 26 31 26 96 0 64 3 76 32 120 67
101 87 188 142 621 49 377 81 685 91 875 18 316 83 585 171 707 48 68 71 131
80 219 5 52 20 111 40 161 43 109 96 320 116 466 17 127 25 150 49 140 21 -8
42 14 56 59 15 52 38 67 92 61 100 -12 120 43 121 327 0 189 -1 196 -23 226
-16 21 -26 54 -33 104 -11 91 -27 116 -94 145 -124 55 -165 128 -173 311 -6
144 -3 150 186 375 358 428 496 563 762 744 204 139 320 234 320 260 0 33 148
136 266 185 133 55 185 42 237 -62 65 -128 74 -387 22 -638 -14 -68 -25 -139
-23 -158 3 -29 8 -36 38 -46 43 -14 66 -53 86 -147 20 -93 14 -263 -11 -329
-24 -65 -23 -129 3 -171 24 -40 28 -69 17 -152 -9 -65 -2 -77 47 -77 54 0 58
20 58 285 0 132 5 256 10 276 6 20 24 50 40 68 17 17 30 36 30 43 0 7 -12 38
-26 67 -48 105 -43 176 26 338 42 98 50 155 25 183 -11 13 -13 24 -5 51 6 18
10 69 10 111 0 70 4 85 35 145 40 78 46 138 17 194 -25 50 -12 74 62 111 69
34 114 68 201 146 122 112 178 110 316 -14 39 -35 79 -64 89 -64 12 0 19 -10
22 -29 8 -56 1 -766 -10 -916 -5 -83 -17 -169 -25 -191 -8 -23 -21 -75 -28
-115 -11 -68 -11 -78 8 -120 17 -39 28 -49 66 -64 27 -10 57 -15 71 -11 44 11
94 64 116 124 32 86 114 378 164 588 29 123 57 215 80 264 35 73 48 127 61
252 4 39 17 74 41 113 19 32 41 77 49 100 23 68 55 241 67 361 11 103 10 115
-10 180 -13 42 -26 122 -32 204 -12 143 -33 301 -51 378 -7 26 -12 94 -13 152
-1 104 -2 106 -49 204 -92 190 -183 303 -344 428 -57 44 -103 86 -103 94 0 11
18 14 84 13 124 -1 174 33 178 120 2 70 -55 128 -157 158 -54 15 -120 17 -630
19 -313 1 -653 -2 -755 -6 -366 -16 -575 -96 -651 -247 -30 -59 -29 -59 -114
-85 -88 -26 -158 -61 -211 -104 -49 -41 -67 -42 -82 -9 -25 55 -12 103 49 188
87 120 99 374 23 458 -9 10 -38 20 -67 24 -135 16 -185 49 -194 129 -8 64 -21
73 -91 58 -32 -7 -60 -8 -65 -3 -13 13 7 44 48 75 61 47 80 96 80 209 0 98 0
99 -31 127 -18 15 -58 37 -90 49 -143 51 -159 69 -174 201 -18 154 -90 280
-161 280 -17 0 -42 12 -63 30 -41 37 -90 55 -204 76 -48 8 -97 18 -109 21
l-23 5 0 -358 0 -359 -93 -57 c-153 -94 -297 -137 -297 -89 0 40 85 93 201
125 85 24 93 37 83 143 l-9 88 -40 20 c-34 16 -61 19 -180 19 -170 0 -268 -15
-400 -60 -105 -36 -182 -46 -195 -24 -5 8 4 36 21 70 26 48 28 60 19 85 -13
35 -38 54 -70 55 -35 0 -60 19 -175 130 -108 105 -121 114 -178 124 -25 5 -53
21 -82 50 -51 48 -56 66 -20 66 37 0 120 36 196 85 166 107 189 113 549 131
162 8 349 20 415 27 135 14 205 8 268 -25 23 -11 143 -87 267 -168 244 -159
316 -202 370 -219 53 -17 234 -157 322 -249 89 -94 130 -171 178 -337 17 -60
40 -141 51 -179 27 -93 62 -128 121 -124 38 3 45 7 61 40 12 24 21 78 27 160
6 67 15 184 21 258 14 181 43 346 74 421 69 171 117 444 114 658 -3 204 18
272 145 455 l61 88 1 82 c0 68 6 93 32 152 50 114 67 228 127 854 19 201 41
433 49 515 8 83 24 269 36 414 29 367 39 411 95 421 44 7 43 39 -4 231 -22 90
-47 204 -56 253 -21 122 -13 149 75 236 38 38 76 82 85 99 23 45 34 154 35
326 0 240 35 578 130 1265 37 271 61 478 76 655 7 89 32 150 65 160 37 12 51
68 60 240 9 198 23 249 84 305 53 49 68 104 53 197 -14 89 1 136 64 210 58 67
87 124 88 171 0 18 -14 139 -30 270 -34 258 -40 441 -20 536 7 33 29 102 50
153 56 137 71 215 79 413 8 187 15 215 74 286 55 67 60 104 22 196 -58 142
-57 253 1 317 52 58 60 89 94 350 17 125 43 199 95 265 39 50 45 65 45 105 0
27 -13 86 -31 137 -21 62 -32 115 -36 174 -6 109 10 144 82 180 70 35 81 61
65 159 -33 203 -220 871 -306 1088 -34 87 -46 134 -54 207 -15 145 -51 297
-141 589 -57 187 -77 271 -94 398 -24 172 -70 296 -174 473 -49 84 -85 186
-100 284 -6 40 -20 91 -31 112 -26 52 -25 80 5 121 37 51 65 93 65 99 0 3 -20
27 -44 53 -42 43 -136 212 -136 243 0 7 23 56 50 108 80 151 72 195 -65 387
-82 114 -185 306 -185 344 0 23 3 24 83 27 l82 3 3 56 c4 77 -39 253 -87 353
-44 93 -80 144 -170 247 -83 94 -128 166 -142 226 -7 26 -16 60 -21 75 -11 30
-93 110 -185 180 -71 54 -134 130 -198 239 -68 115 -71 154 -15 224 51 65 33
108 -59 141 -25 9 -58 21 -73 26 -37 14 -100 76 -176 174 -36 48 -75 87 -93
94 -52 22 -186 245 -204 341 -8 43 2 53 74 71 109 27 87 80 -36 91 -120 10
-241 69 -267 130 -13 31 -53 78 -262 307 -131 144 -205 255 -209 313 -3 48
-32 101 -98 180 -22 26 -48 64 -58 84 -17 33 -17 39 -4 53 23 25 18 44 -20 90
-20 23 -35 53 -35 67 0 14 24 71 54 127 98 184 114 305 41 318 -12 2 -23 15
-29 33 -21 69 -33 92 -86 164 -82 110 -242 282 -359 386 -110 97 -192 155
-322 225 -94 51 -220 163 -269 240 -47 74 -90 230 -64 230 4 0 61 -16 126 -36
66 -19 131 -34 146 -32 25 3 27 6 24 47 -6 92 -48 137 -171 182 -73 26 -136
80 -146 124 -14 61 -54 113 -110 147 -30 18 -55 39 -54 48 0 8 22 32 50 53 61
46 62 67 10 133 -46 59 -71 106 -71 134 0 59 -305 290 -443 336 -36 12 -56 27
-79 58 -40 55 -68 111 -68 135 0 11 -4 22 -10 26 -5 3 -67 17 -137 31 -70 14
-209 48 -308 77 -164 48 -181 55 -193 80 -11 23 -11 35 0 70 14 45 54 78 117
98 69 22 274 22 444 0 242 -32 461 -26 525 15 52 34 12 64 -128 95 -117 25
-184 52 -245 99 -71 53 -153 93 -275 130 -358 109 -360 110 -595 244 -140 80
-282 173 -293 190 -21 37 -152 77 -292 91 -285 28 -480 105 -480 192 0 12 -25
55 -55 95 -39 52 -53 78 -49 93 3 11 28 55 55 98 27 43 49 79 49 81 0 2 -168
6 -372 9 -208 3 -400 10 -433 17 -82 15 -149 49 -153 78 -5 32 -73 80 -221
156 -161 84 -186 108 -185 182 1 101 51 136 263 184 73 17 141 35 152 40 53
29 -1 47 -187 64 -186 17 -205 25 -219 89 -6 27 -17 52 -25 56 -8 5 -103 11
-210 15 -287 9 -498 42 -532 83 -20 24 22 49 110 68 42 9 102 24 132 33 47 15
55 20 55 42 0 19 -9 29 -35 42 -42 20 -165 38 -264 38 -101 0 -173 23 -216 70
-19 20 -45 42 -57 49 -29 15 -102 14 -193 -3 -126 -23 -206 -28 -264 -16 -88
18 -110 64 -70 146 27 55 98 95 218 122 155 35 239 84 222 129 -13 34 -397 -4
-664 -66 -179 -42 -186 -41 -235 14 -39 43 -43 45 -98 45 -32 0 -81 -5 -110
-11 -68 -15 -86 0 -70 57 24 85 7 122 -66 144 -21 7 -160 16 -313 20 -151 5
-292 14 -312 20 -78 23 -74 105 5 133 34 13 6 27 -52 27 -78 0 -200 24 -319
62 -93 31 -104 32 -257 31 -91 0 -248 -10 -365 -22 -348 -38 -437 -32 -522 32
-39 29 -137 79 -210 107 -69 27 -118 69 -132 116 -9 29 17 54 54 54 39 0 74
30 66 58 -13 39 -47 38 -116 -4 -20 -12 -50 -14 -155 -10 -147 5 -247 27 -350
77 l-67 32 -106 -8 c-154 -12 -222 -10 -280 9 -53 18 -92 55 -92 87 0 9 -7 25
-16 34 -14 14 -59 15 -403 13 -375 -3 -388 -2 -453 19 -37 12 -152 37 -255 55
-165 28 -210 32 -373 32 -184 1 -186 1 -325 -37 -161 -44 -281 -56 -401 -39
-135 19 -391 32 -869 42 -253 6 -503 15 -555 20 -187 20 -313 22 -346 6z
m8651 -26216 c378 -11 621 -25 696 -41 48 -11 89 -33 78 -43 -20 -20 -265 -27
-1329 -36 -1215 -10 -1451 -17 -1625 -44 -55 -8 -230 -27 -390 -41 -357 -31
-614 -60 -765 -85 -145 -25 -376 -53 -695 -85 -317 -32 -504 -57 -759 -100
-112 -19 -399 -60 -637 -90 -497 -64 -747 -100 -837 -121 -110 -25 -164 -15
-109 20 75 49 882 230 1429 321 117 19 238 43 268 51 166 49 625 126 1174 199
265 35 529 79 550 92 5 4 40 10 76 14 91 11 2451 2 2875 -11z m475 -530 c342
-16 591 -38 945 -80 182 -21 377 -44 435 -50 116 -12 150 -22 150 -44 0 -25
-71 -37 -279 -46 -211 -10 -310 -20 -436 -47 -44 -9 -112 -17 -151 -17 -62 -1
-75 2 -106 26 -42 32 -78 43 -114 34 -23 -6 -25 -11 -22 -49 4 -57 -11 -63
-185 -70 -155 -7 -199 -16 -232 -47 -62 -59 -321 -43 -411 25 -70 53 -188 78
-258 55 -41 -13 -56 -35 -56 -80 0 -20 -9 -40 -26 -56 -30 -31 -59 -27 -118
17 -34 25 -49 29 -101 29 -103 0 -162 -23 -222 -88 -47 -49 -57 -55 -94 -56
-38 -1 -44 2 -63 35 -23 41 -57 71 -130 118 -63 39 -95 40 -129 1 -15 -16 -33
-27 -41 -24 -7 3 -34 31 -58 62 -41 53 -69 73 -140 101 -18 7 -30 20 -33 38
-4 15 -10 35 -14 42 -19 37 -88 37 -646 1 -534 -34 -598 -40 -761 -65 -316
-49 -471 -88 -537 -132 -66 -45 -122 -53 -433 -63 -256 -8 -400 -17 -564 -35
-42 -5 -39 -3 40 30 189 79 415 135 830 205 135 23 331 59 435 80 105 21 231
46 280 54 275 46 833 87 1470 106 342 10 1491 4 1775 -10z m-3503 -778 c115
-59 161 -206 102 -323 -25 -50 -91 -104 -142 -118 -27 -7 -142 -10 -327 -8
-157 2 -297 2 -312 -1 -37 -6 -35 -26 6 -57 88 -67 58 -177 -54 -200 -19 -4
-51 -18 -72 -31 -55 -35 -118 -47 -217 -42 -97 6 -137 21 -199 74 l-41 35 -73
-20 c-199 -52 -418 -144 -513 -216 -28 -21 -84 -69 -126 -106 -42 -38 -116
-99 -165 -137 -49 -37 -105 -89 -124 -116 -19 -27 -78 -93 -130 -145 -76 -76
-105 -113 -136 -176 -41 -82 -53 -92 -145 -130 -32 -13 -35 -46 -9 -119 31
-92 27 -130 -23 -203 -24 -33 -55 -90 -70 -125 -18 -42 -37 -68 -55 -79 -32
-18 -62 -74 -62 -113 0 -46 27 -94 67 -120 32 -21 54 -27 133 -32 52 -3 138
-14 192 -25 53 -10 118 -19 145 -19 90 0 110 -12 228 -134 l110 -113 165 -81
c126 -61 212 -95 365 -142 110 -33 211 -66 224 -73 31 -15 39 -31 46 -89 9
-66 50 -108 109 -108 44 0 66 12 115 60 16 17 38 30 48 30 31 0 92 -20 167
-55 152 -70 344 -125 488 -140 102 -10 275 -70 450 -155 60 -29 108 -45 160
-52 40 -5 87 -12 104 -14 27 -4 36 -14 70 -82 55 -109 72 -117 239 -117 157 0
223 17 289 74 50 44 92 56 236 71 52 5 112 15 133 21 42 11 106 63 95 75 -5 4
-33 2 -63 -5 -30 -7 -64 -10 -75 -6 -11 3 -30 28 -43 55 -28 59 -40 52 133 79
138 22 170 31 313 85 54 21 187 57 295 81 108 24 287 73 397 109 110 36 201
66 203 66 2 0 0 -5 -3 -11 -4 -5 -4 -21 -1 -34 7 -28 37 -38 165 -55 123 -17
186 -43 256 -110 73 -70 92 -80 147 -80 89 0 89 32 -1 139 -79 94 -88 124 -66
207 9 35 21 64 25 64 5 0 14 -17 20 -37 23 -71 50 -103 105 -128 43 -18 59
-33 81 -72 15 -26 28 -49 29 -50 1 -2 41 18 90 44 89 48 119 76 236 222 50 62
100 91 167 99 36 4 68 19 134 64 88 58 123 71 278 98 183 33 293 79 334 140
14 22 37 46 50 55 22 15 23 19 18 109 -7 135 8 186 72 252 74 76 164 95 256
53 60 -27 88 -54 116 -114 20 -43 24 -65 24 -158 0 -119 -9 -153 -59 -209 -17
-20 -31 -38 -31 -40 0 -3 22 -8 49 -11 62 -7 100 -27 145 -73 67 -69 84 -190
37 -270 l-20 -34 89 0 90 0 0 43 c0 57 39 136 85 174 33 27 36 34 30 62 -10
45 12 123 46 171 17 23 51 51 81 67 45 22 66 26 133 26 88 0 130 -13 183 -58
81 -68 102 -195 49 -289 -19 -35 -27 -62 -27 -99 l0 -50 49 46 c76 71 165 86
257 43 95 -44 142 -133 131 -246 -6 -57 -6 -60 16 -60 38 0 122 -46 154 -84
73 -89 71 -218 -3 -305 l-37 -42 31 -32 c50 -52 62 -93 62 -214 0 -82 -5 -118
-18 -148 -18 -38 -18 -42 0 -87 15 -39 17 -74 16 -200 -1 -84 2 -187 6 -228 6
-55 3 -95 -8 -151 -12 -56 -14 -84 -6 -104 23 -61 8 -153 -37 -212 -22 -30
-23 -36 -12 -78 6 -25 10 -86 7 -138 -5 -111 -29 -163 -98 -214 -25 -18 -51
-38 -57 -44 -7 -5 -13 -30 -13 -55 0 -97 -59 -215 -199 -399 -93 -122 -268
-302 -302 -309 -13 -3 -49 -10 -80 -16 -116 -22 -214 -110 -164 -146 25 -19
122 -18 198 2 34 9 105 36 159 60 102 47 168 65 168 45 0 -39 -268 -269 -380
-326 -121 -61 -619 -209 -880 -261 -96 -19 -221 -48 -279 -64 -297 -85 -1311
-275 -2031 -381 -113 -16 -250 -40 -305 -54 -96 -22 -270 -41 -770 -80 -670
-52 -1223 -69 -2074 -62 -842 7 -1038 20 -1147 78 -38 20 -71 29 -103 29 -67
0 -151 23 -281 75 -156 63 -352 158 -368 178 -36 43 108 33 508 -38 732 -130
1030 -151 2020 -142 786 7 957 18 1665 102 204 25 462 53 575 64 113 11 302
30 420 41 528 51 1253 162 1635 250 94 22 238 51 322 65 169 28 249 50 365
102 44 19 112 41 151 49 122 25 346 150 355 198 12 59 -63 43 -531 -110 -414
-136 -696 -201 -1247 -288 -760 -120 -2120 -267 -2875 -310 -426 -25 -1008
-39 -1335 -32 -805 17 -1259 68 -1505 167 -55 23 -172 65 -260 96 -176 60
-325 127 -425 192 -36 23 -103 60 -150 82 -181 86 -213 103 -332 181 -279 182
-469 343 -517 436 -29 57 -51 146 -51 209 0 78 -23 125 -93 186 -46 41 -66 67
-79 103 -10 27 -54 110 -98 184 -119 199 -161 319 -199 572 -11 69 -26 139
-34 155 -58 113 -226 775 -242 958 -8 86 -21 131 -45 153 -34 31 -42 100 -47
394 -7 377 12 602 54 650 22 25 41 99 52 206 13 119 33 197 71 281 38 81 39
158 5 361 -29 174 -34 290 -12 340 8 19 18 58 22 85 8 55 41 126 78 171 55 66
71 113 75 225 5 117 -3 143 -44 153 -74 19 -205 -97 -288 -252 -54 -103 -76
-116 -76 -48 0 91 131 287 273 406 42 36 122 86 199 126 78 40 138 78 150 95
12 15 34 33 50 40 25 10 32 9 46 -5 24 -24 5 -49 -49 -62 -33 -8 -49 -19 -62
-42 -13 -21 -31 -35 -56 -42 -56 -15 -131 -101 -131 -151 0 -21 8 -31 38 -45
34 -18 64 -19 417 -17 397 3 553 11 870 43 261 27 624 57 845 70 102 6 261 17
355 25 93 8 180 15 192 15 13 0 25 6 27 13 2 6 9 31 15 55 7 24 29 62 49 84
53 59 100 78 198 78 44 0 83 2 86 5 3 3 1 24 -5 46 -22 89 32 207 115 251 38
20 62 24 193 28 83 3 249 5 370 4 203 -1 223 -3 262 -22z m-999 -1164 c20 -42
36 -113 47 -209 9 -75 21 -84 108 -84 l75 0 6 -55 c4 -30 16 -74 27 -97 24
-49 129 -150 208 -201 31 -19 57 -38 59 -41 1 -4 21 -36 45 -71 37 -58 42 -72
43 -125 0 -76 24 -123 102 -202 47 -48 60 -69 66 -103 18 -111 54 -138 306
-219 167 -53 226 -67 344 -81 88 -10 112 -18 223 -71 68 -33 141 -75 162 -94
21 -19 45 -35 53 -35 8 0 38 17 66 39 53 39 96 63 194 105 39 17 61 33 72 54
23 44 127 93 215 101 38 4 79 14 94 24 50 32 161 133 317 287 148 146 260 242
332 285 21 13 44 42 64 80 27 53 36 62 77 77 59 22 253 48 358 48 87 0 141
-17 158 -48 35 -65 -24 -300 -87 -354 -22 -18 -28 -48 -36 -196 -9 -151 -33
-185 -147 -203 -74 -12 -124 -33 -232 -96 -97 -56 -234 -95 -472 -133 -280
-44 -358 -60 -500 -99 -215 -60 -240 -68 -335 -109 -54 -23 -102 -36 -130 -37
-42 0 -45 2 -63 40 -25 53 -44 73 -92 98 -37 19 -53 20 -240 17 -426 -8 -718
3 -1019 36 -76 8 -148 19 -160 24 -12 4 -58 34 -101 65 -79 56 -130 83 -317
164 -53 23 -128 62 -168 86 -100 62 -421 372 -516 498 -41 54 -74 102 -74 107
0 5 13 16 29 25 78 40 90 104 36 201 -19 35 -31 65 -27 67 4 3 22 8 39 12 39
8 78 52 95 106 6 23 17 43 23 46 7 2 34 -7 60 -21 55 -30 73 -31 120 -12 40
17 65 60 65 111 0 54 13 70 86 101 36 15 114 52 173 81 58 29 116 53 128 53
15 0 27 -12 41 -42z m-2303 -29638 c4 -6 24 -19 45 -30 31 -16 59 -20 140 -20
l101 0 19 -42 c25 -55 27 -144 3 -170 -22 -25 -44 -23 -118 12 -75 35 -126 39
-154 11 -22 -22 -28 -48 -35 -166 -6 -91 -21 -145 -42 -145 -28 0 -38 -45 -24
-108 19 -91 5 -105 -123 -128 -72 -13 -114 49 -87 130 12 37 35 56 68 56 26 0
54 33 46 54 -3 9 -26 28 -49 42 -47 27 -75 73 -75 122 0 18 -10 42 -23 57 -21
24 -25 26 -66 16 -77 -17 -133 -75 -145 -150 -3 -22 -13 -47 -22 -55 -21 -22
-61 -20 -74 3 -13 25 -13 220 0 297 29 163 79 182 167 63 49 -64 74 -71 116
-31 49 46 107 82 134 82 18 0 28 8 36 30 11 30 14 31 67 28 53 -3 55 -2 58 25
3 27 25 37 37 17z m-778 -316 c32 -9 35 -29 8 -66 -13 -18 -32 -44 -41 -56
-22 -29 -7 -42 48 -42 26 0 40 -6 47 -18 10 -19 7 -27 -37 -93 -27 -40 -24
-76 14 -156 64 -134 164 -135 164 -1 1 85 64 173 133 185 53 8 64 -21 49 -125
-7 -42 -12 -102 -12 -133 0 -65 6 -72 97 -118 76 -38 105 -77 110 -145 5 -61
-24 -118 -76 -153 -39 -26 -93 -30 -111 -8 -7 8 -13 41 -14 72 -1 56 -2 58
-41 81 -35 20 -50 22 -123 19 -86 -4 -93 -1 -117 46 -20 40 -38 42 -109 14
-37 -15 -98 -32 -137 -37 -87 -13 -111 -24 -107 -53 4 -27 50 -33 134 -18 130
24 164 -55 65 -150 -45 -43 -90 -65 -172 -83 -17 -4 -29 -14 -33 -29 -6 -27
-44 -47 -87 -47 -69 0 -84 33 -53 123 18 54 25 60 72 61 21 1 39 8 46 18 16
26 -21 59 -119 108 -89 43 -145 95 -145 134 0 55 80 110 201 141 102 25 138
45 159 84 24 49 43 142 44 227 1 66 -1 73 -31 108 -38 43 -39 47 -15 74 27 33
128 52 189 36z"/>
<path d="M12844 38546 c-17 -17 -73 -52 -125 -79 -82 -41 -102 -47 -155 -47
-45 0 -73 6 -108 25 l-46 24 0 -29 c0 -41 31 -118 69 -174 l32 -46 27 18 c71
48 165 56 241 22 24 -11 45 -20 47 -20 2 0 4 31 4 69 0 55 5 79 29 126 24 47
28 65 23 99 l-7 42 -31 -30z"/>
<path d="M7574 33603 c-12 -48 -42 -99 -74 -126 -16 -14 -30 -28 -30 -31 0 -3
33 -6 73 -6 l74 0 51 51 51 50 -20 34 c-19 32 -61 55 -100 55 -12 0 -21 -10
-25 -27z"/>
<path d="M4753 31204 c-23 -23 -25 -31 -21 -82 3 -37 20 -91 46 -152 66 -154
72 -216 20 -234 -43 -15 -60 6 -52 64 5 39 3 48 -11 53 -9 4 -25 2 -35 -3 -40
-21 -34 -106 14 -210 14 -30 23 -57 21 -61 -3 -3 -19 -9 -37 -13 -40 -8 -68
-33 -68 -61 0 -33 -50 -95 -124 -153 -36 -29 -66 -58 -66 -66 0 -8 16 -16 42
-19 56 -7 72 -30 52 -68 -17 -34 -36 -36 -87 -9 -86 46 -157 6 -224 -127 -31
-62 -47 -82 -88 -109 -50 -33 -224 -95 -274 -98 -22 -1 -64 39 -262 246 -245
256 -393 421 -447 500 -27 39 -41 49 -84 62 -152 43 -503 95 -703 103 -82 3
-156 9 -164 13 -9 5 2 18 38 46 27 21 50 44 51 50 0 16 -34 24 -103 24 -63 0
-124 20 -133 45 -11 28 -31 16 -95 -57 -86 -96 -117 -109 -281 -116 -154 -6
-164 -11 -154 -81 20 -134 20 -136 -6 -165 -28 -33 -100 -55 -209 -63 -142
-11 -165 46 -34 86 102 31 116 45 73 75 -73 52 -199 -15 -249 -132 -28 -64
-25 -76 13 -70 43 7 58 1 58 -22 0 -31 -32 -42 -87 -30 -56 13 -105 6 -148
-20 -16 -10 -57 -23 -90 -29 -85 -15 -405 -31 -642 -31 l-203 0 0 -750 c0
-475 4 -750 10 -750 5 0 65 22 132 50 68 27 152 57 188 66 69 17 148 57 156
79 11 28 77 49 154 48 123 0 200 -27 375 -128 33 -19 74 -35 90 -35 38 0 102
36 128 72 20 26 20 33 8 116 -15 109 -11 122 39 122 46 0 54 -15 38 -76 -18
-65 -6 -78 73 -82 109 -4 150 40 92 100 -26 27 -28 35 -31 128 -5 124 12 232
42 266 45 53 248 75 355 39 63 -21 125 -15 291 30 52 14 138 28 190 32 85 5
101 3 147 -17 49 -21 54 -21 77 -6 14 9 54 60 89 113 36 55 78 106 95 116 41
24 107 22 132 -3 24 -24 27 -39 39 -157 4 -51 14 -100 21 -108 7 -8 31 -24 54
-34 22 -10 48 -27 58 -37 56 -65 39 -204 -32 -249 -27 -17 -39 -33 -44 -57 -8
-47 8 -106 38 -137 32 -33 33 -55 4 -75 -17 -12 -35 -14 -69 -10 -42 6 -48 4
-54 -15 -10 -33 4 -78 40 -125 49 -65 55 -80 55 -140 0 -44 4 -57 19 -66 44
-23 134 3 176 50 31 34 88 59 158 69 72 10 101 23 199 88 84 55 160 89 340
154 473 169 732 371 888 693 134 277 231 753 232 1136 0 268 -27 375 -106 411
-59 27 -101 24 -133 -7z"/>
<path d="M1968 28339 c-9 -8 -25 -36 -35 -64 -23 -64 -61 -85 -151 -85 -109 0
-118 -16 -82 -144 11 -39 26 -114 34 -166 9 -52 21 -114 28 -137 11 -38 10
-46 -8 -70 -48 -63 -74 -57 -113 29 -16 35 -48 104 -70 155 -23 51 -47 120
-52 155 -16 98 -29 132 -68 184 -58 77 -113 114 -171 114 -39 0 -50 -4 -63
-23 -19 -29 -116 -52 -284 -67 -121 -11 -237 -31 -285 -49 -38 -14 -51 -45
-45 -107 10 -95 62 -182 138 -230 91 -57 243 -340 264 -492 4 -29 11 -54 15
-57 5 -3 30 8 56 25 26 16 59 30 73 30 47 0 190 -90 271 -170 75 -75 115 -136
239 -355 34 -61 82 -137 106 -170 63 -84 89 -166 90 -286 0 -192 -28 -197
-293 -51 l-92 51 -39 -57 c-76 -111 -123 -142 -215 -142 -68 0 -129 -31 -225
-114 -78 -67 -143 -106 -180 -106 -20 0 -41 -17 -80 -65 -16 -20 -47 -16 -179
26 -123 39 -184 39 -223 0 -16 -16 -29 -37 -29 -46 0 -24 66 -80 142 -121 38
-19 68 -39 68 -44 0 -32 -108 -61 -308 -85 -74 -8 -149 -22 -168 -30 l-34 -14
0 -600 0 -601 48 0 c26 0 135 5 242 10 107 5 445 18 750 30 934 33 1114 45
1211 76 84 27 263 53 676 99 223 25 523 63 667 85 412 62 532 68 557 29 11
-19 -9 -39 -40 -39 -46 0 -65 -22 -76 -92 -10 -62 -11 -63 -60 -90 -27 -15
-79 -36 -115 -47 -37 -12 -88 -35 -114 -52 -45 -28 -48 -32 -41 -62 19 -90 18
-105 -5 -117 -13 -7 -83 -16 -156 -20 -162 -9 -185 -20 -231 -105 -31 -59 -47
-121 -58 -227 -8 -72 -37 -116 -95 -145 -60 -31 -112 -29 -188 7 -35 17 -73
30 -84 30 -12 0 -46 -26 -81 -61 -64 -66 -106 -89 -159 -89 -46 0 -75 -23 -89
-70 -19 -64 -11 -71 77 -68 l77 3 32 -45 c27 -38 37 -45 65 -45 50 0 74 39 80
128 5 71 5 72 35 75 17 1 44 -6 63 -18 27 -17 32 -25 32 -60 0 -22 -11 -69
-25 -106 -33 -88 -34 -156 -1 -189 38 -37 67 -39 214 -15 166 28 187 25 202
-31 19 -68 15 -69 -204 -68 -242 2 -286 -13 -286 -96 0 -36 -44 -75 -108 -98
-61 -21 -127 -83 -171 -161 -17 -31 -42 -63 -57 -72 -24 -16 -26 -16 -46 3
-16 16 -22 38 -26 95 -2 40 -9 81 -14 91 -15 29 -55 20 -102 -23 -58 -54 -109
-70 -220 -70 l-91 0 51 34 c89 60 130 120 122 177 -3 22 -8 24 -51 23 -65 -1
-216 -78 -417 -213 -85 -57 -184 -118 -220 -135 -59 -27 -76 -31 -188 -34
-131 -5 -378 10 -556 34 -125 16 -176 8 -202 -31 -18 -27 -34 -25 -34 6 0 42
-112 56 -330 40 -85 -7 -179 -14 -207 -18 l-53 -6 0 -425 0 -425 108 6 c130 8
172 19 217 58 59 52 155 71 240 48 52 -14 75 -36 75 -70 0 -34 20 -42 75 -29
61 15 111 12 126 -6 7 -9 25 -39 39 -67 32 -65 93 -112 163 -127 73 -15 125
-1 191 49 110 85 223 93 361 27 95 -44 146 -47 225 -10 171 80 361 69 459 -26
22 -22 41 -46 41 -53 0 -7 11 -24 25 -40 82 -88 174 -64 145 39 -16 56 -3 74
52 74 39 0 84 -20 148 -66 31 -23 42 -25 120 -22 47 1 91 -1 98 -5 6 -5 12
-21 12 -38 0 -46 31 -69 94 -69 33 0 58 5 63 13 4 6 8 41 8 77 0 63 1 65 26
68 42 5 64 37 63 91 -1 51 -24 101 -80 170 -19 24 -38 57 -41 73 -5 27 -25 47
-69 74 -17 10 -16 13 9 57 65 110 6 229 -153 307 -95 47 -96 49 -47 74 24 13
61 47 85 79 52 68 77 75 199 57 114 -17 145 -9 203 49 49 49 110 144 110 172
0 27 101 109 134 109 17 0 26 -21 26 -64 0 -22 8 -40 25 -56 21 -20 31 -22 83
-18 71 7 136 39 257 126 86 62 234 142 262 142 26 0 90 39 116 70 15 17 45 67
68 111 75 143 170 211 362 260 113 28 157 59 188 133 12 31 26 56 30 56 4 0
17 -16 30 -36 25 -41 86 -73 136 -74 39 0 73 30 73 63 0 45 108 165 168 188
23 9 29 7 45 -15 23 -32 61 -34 143 -6 106 37 196 51 376 59 175 7 177 7 240
41 59 31 72 34 193 40 72 4 169 15 216 24 95 18 118 14 164 -28 53 -49 242
-95 396 -96 72 0 97 5 155 28 38 16 101 39 139 52 81 26 130 53 140 78 4 9 9
41 10 69 3 60 17 83 51 83 27 0 64 32 64 55 0 9 -16 31 -35 50 -37 38 -62 105
-47 131 7 13 13 10 31 -20 24 -38 36 -44 43 -23 3 6 2 197 -1 422 -6 399 -7
411 -29 460 -13 28 -38 66 -56 85 -58 61 -105 130 -116 169 -6 22 -30 61 -54
88 -55 61 -101 133 -159 249 -79 157 -115 186 -228 183 -39 -1 -75 3 -81 9 -6
6 -14 34 -19 63 -9 59 -32 89 -66 89 -23 0 -35 10 -93 80 l-28 35 -109 0 c-59
0 -114 4 -120 8 -9 5 -13 34 -13 81 0 113 10 109 -293 116 -268 7 -300 12
-342 60 -11 12 -31 28 -45 35 -38 19 -163 44 -285 55 -216 21 -358 51 -396 86
-11 9 -49 20 -92 24 -76 9 -139 29 -151 49 -11 17 -68 13 -96 -6 -49 -33 -51
-47 -10 -98 44 -55 47 -79 17 -118 -13 -18 -41 -41 -60 -52 l-36 -19 -25 23
c-29 27 -50 99 -71 241 -20 138 -39 201 -70 234 -14 15 -25 32 -26 39 -14 247
-35 273 -236 288 -143 11 -190 26 -290 92 -100 66 -206 107 -282 110 -69 2
-88 -10 -120 -78 -11 -24 -35 -60 -53 -80 -29 -34 -36 -37 -71 -32 -22 3 -55
18 -76 35 -34 27 -36 33 -39 95 -4 91 -20 103 -150 112 -53 3 -111 11 -129 16
-41 13 -91 69 -134 149 -41 77 -119 164 -169 190 -52 26 -101 85 -150 178 -52
100 -96 147 -175 184 -80 37 -181 56 -335 64 -97 5 -129 3 -142 -7z m936
-1498 c-14 -198 -11 -556 5 -621 19 -79 35 -100 74 -100 75 1 177 75 230 168
16 30 36 56 43 59 22 8 102 -36 125 -69 14 -19 24 -55 30 -105 12 -108 20
-114 130 -106 80 5 89 4 89 -11 0 -10 -14 -23 -31 -30 l-32 -13 60 -65 c70
-75 81 -99 59 -132 -16 -25 -80 -46 -141 -46 -41 0 -81 -18 -109 -49 -37 -41
-100 -16 -112 44 -7 40 -29 56 -114 85 -108 36 -249 53 -409 47 -80 -3 -155
-1 -168 4 -35 13 -42 45 -25 119 45 202 239 876 267 931 30 57 38 25 29 -110z"/>
<path d="M4132 6541 c-36 -9 -82 -47 -82 -67 0 -23 -82 -83 -182 -134 -128
-66 -170 -81 -248 -89 -65 -6 -65 -6 -88 -51 -34 -69 -51 -80 -128 -90 -89
-11 -96 -14 -116 -50 -18 -31 -87 -71 -156 -90 -38 -10 -49 -9 -88 10 -38 19
-61 22 -177 22 -138 -1 -253 -15 -299 -38 -31 -16 -61 -55 -50 -66 4 -4 55
-14 114 -22 116 -17 192 -41 241 -79 55 -42 98 -59 170 -68 38 -5 76 -14 83
-20 8 -6 14 -28 14 -48 0 -50 -64 -201 -97 -230 -26 -22 -31 -23 -108 -15
-257 28 -507 -28 -553 -124 -20 -44 -59 -61 -143 -61 -64 -1 -109 -27 -109
-64 0 -38 -14 -49 -56 -45 l-39 3 0 -39 c0 -35 -4 -41 -32 -53 -19 -7 -111
-17 -215 -23 -229 -13 -351 -26 -377 -39 -11 -6 -23 -20 -26 -31 -23 -72 83
-140 270 -175 92 -17 473 -54 480 -46 3 2 5 41 5 85 0 107 18 137 103 175 47
22 127 74 141 92 0 1 112 5 248 8 235 6 248 7 275 28 88 70 305 174 374 181
38 3 54 0 78 -17 19 -14 42 -21 58 -19 36 4 56 60 51 141 -8 108 -71 148 -146
89 -68 -54 -102 -47 -102 19 0 36 88 112 186 160 85 43 90 44 176 42 83 -2 88
-1 108 24 24 31 26 82 5 123 -20 39 -53 39 -90 0 -44 -46 -95 -33 -95 25 0 23
84 110 156 161 69 49 179 104 210 104 38 0 110 59 177 145 85 107 131 142 203
151 84 10 105 41 59 84 -21 19 -38 25 -88 27 -34 1 -77 -2 -95 -6z"/>
</g>
</svg>
