<?xml version="1.0" standalone="no"?>
<!DOCTYPE svg PUBLIC "-//W3C//DTD SVG 20010904//EN"
 "http://www.w3.org/TR/2001/REC-SVG-20010904/DTD/svg10.dtd">
<svg version="1.0" xmlns="http://www.w3.org/2000/svg"
 width="2798.000000pt" height="7061.000000pt" viewBox="0 0 2798.000000 7061.000000"
 preserveAspectRatio="xMidYMid meet">
<metadata>
Created by potrace 1.16, written by Peter Selinger 2001-2019
</metadata>
<g transform="translate(0.000000,7061.000000) scale(0.100000,-0.100000)"
fill="#000000" stroke="none">
<path d="M27915 68980 c-93 -62 -104 -64 -329 -56 -240 9 -296 1 -478 -60
-148 -49 -163 -52 -153 -26 19 49 17 71 -8 96 -35 35 -93 35 -150 1 -57 -33
-146 -52 -302 -64 -147 -12 -224 -30 -304 -71 -77 -38 -190 -73 -364 -110
-158 -33 -214 -50 -263 -79 -48 -29 -91 -39 -205 -50 -195 -19 -422 -120 -594
-264 -95 -79 -142 -96 -293 -107 -100 -6 -143 -14 -190 -33 -123 -49 -270
-156 -597 -432 -287 -243 -538 -426 -684 -499 -194 -98 -346 -100 -496 -8 -77
47 -96 49 -168 16 -60 -28 -68 -29 -212 -29 -135 0 -154 2 -196 23 -83 40
-101 35 -449 -133 -281 -135 -383 -177 -486 -199 -72 -15 -176 -56 -379 -149
-118 -54 -204 -85 -296 -108 -27 -6 -66 -27 -94 -50 -49 -40 -131 -92 -275
-174 -47 -26 -126 -74 -175 -106 -117 -75 -193 -108 -272 -118 -35 -4 -71 -14
-79 -23 -8 -8 -19 -42 -24 -75 -15 -112 -89 -210 -173 -232 -95 -23 -263 -162
-458 -377 -179 -197 -356 -366 -412 -393 -97 -47 -208 -22 -299 69 -43 44 -58
66 -63 96 -10 63 -27 88 -65 96 -86 17 -188 31 -225 32 -38 1 -41 -1 -63 -48
-14 -29 -55 -80 -101 -125 -93 -90 -101 -108 -71 -157 20 -31 22 -45 17 -117
-6 -100 -26 -165 -71 -237 -58 -90 -85 -152 -106 -241 -32 -135 -62 -219 -94
-263 -41 -56 -55 -100 -56 -174 0 -81 -17 -112 -80 -146 -64 -35 -90 -75 -90
-141 0 -27 -7 -80 -14 -116 -28 -131 -78 -189 -163 -189 -46 0 -73 25 -73 66
0 20 -34 70 -125 182 -42 52 -43 74 -10 172 32 95 34 186 5 218 -29 30 -51 17
-101 -60 -82 -127 -118 -234 -99 -292 5 -17 23 -44 40 -59 58 -55 32 -137 -42
-137 -20 0 -32 -7 -39 -24 -16 -35 16 -87 106 -176 82 -80 135 -152 135 -183
0 -20 -2 -20 -61 -1 -14 5 -15 -8 -15 -98 1 -95 -1 -108 -31 -174 -40 -87 -50
-133 -62 -273 -12 -136 -47 -244 -91 -283 -38 -35 -80 -36 -270 -8 -74 11
-136 20 -137 20 -2 0 -3 -44 -3 -97 0 -142 -15 -168 -174 -316 -157 -146 -196
-167 -316 -167 -156 0 -210 -35 -210 -135 0 -63 11 -75 81 -86 69 -11 82 -24
75 -72 -16 -96 -61 -132 -161 -125 -49 3 -70 10 -98 31 -29 22 -46 27 -90 27
-95 0 -227 -84 -227 -146 0 -51 -59 -145 -170 -274 -119 -139 -125 -157 -60
-209 51 -41 52 -68 6 -160 -48 -95 -121 -159 -221 -196 -42 -15 -79 -34 -82
-42 -4 -10 11 -30 40 -55 57 -48 68 -88 39 -144 -63 -121 -288 -256 -690 -415
-101 -39 -186 -78 -189 -85 -2 -7 5 -33 16 -59 22 -49 63 -75 119 -75 47 0 90
-11 95 -25 10 -25 -29 -79 -151 -208 -228 -240 -384 -431 -442 -539 -34 -64
-21 -89 63 -127 66 -30 77 -43 77 -92 0 -63 -147 -179 -227 -179 -25 0 -44 10
-77 40 -24 22 -52 40 -63 40 -28 0 -99 -80 -128 -142 -53 -114 -57 -276 -10
-324 17 -17 35 -24 64 -24 52 0 65 -23 58 -100 -6 -70 -48 -162 -154 -340
-162 -273 -228 -412 -244 -513 -12 -72 -35 -120 -89 -182 -53 -61 -96 -148
-122 -244 -17 -64 -20 -101 -18 -231 6 -372 9 -332 -27 -373 -22 -25 -33 -50
-38 -84 -10 -74 -48 -178 -157 -423 -106 -238 -138 -338 -138 -429 0 -78 -23
-165 -70 -269 -22 -49 -40 -98 -40 -109 0 -10 22 -49 49 -86 81 -111 103 -203
71 -293 -79 -221 -140 -580 -200 -1184 -25 -248 -53 -407 -85 -478 -31 -68
-42 -132 -56 -327 -12 -175 -6 -356 16 -452 15 -63 8 -113 -14 -113 -16 0 -41
-56 -41 -90 0 -42 23 -95 69 -154 52 -68 56 -87 31 -135 -31 -61 -26 -109 16
-171 68 -99 77 -168 48 -355 -24 -153 -22 -277 6 -350 81 -217 82 -224 87
-365 4 -92 0 -174 -11 -257 -19 -143 -20 -236 -5 -266 7 -12 40 -52 74 -88 78
-81 92 -121 70 -197 -9 -29 -37 -80 -64 -115 -81 -105 -86 -119 -86 -232 0
-91 3 -105 30 -160 24 -48 42 -68 90 -101 107 -72 147 -202 111 -357 -9 -38
-16 -92 -16 -121 0 -92 49 -216 85 -216 30 0 38 -39 25 -117 -14 -88 -7 -124
32 -180 17 -23 37 -68 44 -100 23 -91 33 -427 36 -1103 3 -679 2 -685 -53
-771 -38 -59 -37 -83 2 -106 37 -22 61 -66 82 -153 48 -192 87 -816 87 -1387
0 -305 -8 -405 -41 -507 -32 -96 -35 -222 -9 -341 61 -282 71 -500 45 -1030
-19 -393 -16 -438 29 -455 28 -10 36 -48 36 -169 l0 -84 -46 -49 c-68 -73 -77
-102 -73 -238 l4 -115 -65 2 c-77 1 -185 28 -366 89 -73 24 -141 44 -153 44
-29 0 -27 -31 4 -68 14 -17 22 -33 18 -35 -12 -7 -141 -35 -218 -47 -224 -35
-552 -123 -667 -181 -123 -60 -208 -137 -229 -207 -15 -52 -6 -87 36 -129 27
-27 41 -33 74 -33 39 0 125 32 137 51 3 5 18 9 34 9 26 0 31 -5 40 -40 17 -63
57 -101 113 -107 69 -8 112 24 162 118 45 89 69 116 115 136 63 26 233 62 350
73 137 13 178 23 214 51 39 31 75 91 87 149 l11 50 30 -16 c46 -24 123 -99
158 -155 24 -37 34 -67 42 -126 17 -133 46 -150 135 -77 51 42 102 54 126 29
23 -22 21 -53 -4 -117 -17 -43 -20 -68 -17 -133 5 -93 28 -146 90 -207 l40
-39 -27 -29 c-24 -25 -27 -35 -22 -71 12 -88 100 -169 184 -169 54 0 90 -14
97 -38 4 -12 -5 -47 -20 -85 -17 -42 -24 -74 -20 -90 3 -14 30 -55 60 -92 58
-70 90 -137 84 -176 -3 -22 -8 -24 -58 -24 -52 0 -55 -1 -58 -27 -2 -14 9 -93
24 -175 40 -219 38 -291 -10 -435 -21 -64 -36 -124 -32 -133 9 -24 39 -14 54
18 7 15 17 27 21 27 5 0 27 -20 50 -45 51 -55 49 -60 -56 -160 -69 -66 -91
-105 -58 -105 19 0 45 -51 45 -88 0 -17 -8 -40 -19 -53 -17 -22 -21 -22 -62
-10 -152 45 -195 98 -279 336 -74 210 -129 306 -268 464 -56 64 -108 135 -132
183 -36 69 -46 80 -87 98 -29 13 -74 49 -118 95 -64 66 -89 104 -129 194 -6
13 -35 40 -64 60 -147 99 -256 188 -348 282 -106 110 -148 170 -158 231 -5 27
-20 49 -60 85 -84 76 -401 239 -488 251 -38 5 -41 3 -141 -99 -107 -109 -168
-191 -189 -255 -11 -31 -28 -48 -93 -92 -104 -69 -150 -114 -164 -162 -6 -21
-29 -60 -50 -87 -52 -66 -61 -86 -61 -130 0 -21 -10 -81 -22 -133 l-21 -96 27
-81 c37 -112 49 -235 50 -533 l1 -255 -33 -75 c-18 -41 -35 -95 -38 -120 -3
-26 5 -120 20 -220 13 -96 34 -240 46 -320 25 -176 78 -450 97 -505 7 -22 34
-69 58 -105 41 -60 46 -74 65 -190 31 -191 45 -243 132 -519 88 -279 105 -322
144 -364 94 -102 238 -26 220 116 -4 26 -22 96 -41 155 -18 59 -56 179 -84
267 -65 204 -89 318 -101 480 -23 287 -29 308 -111 369 -49 37 -64 77 -85 222
-17 123 -16 172 7 409 7 72 12 190 11 264 -1 121 1 139 24 192 24 58 24 59 14
236 -6 98 -12 201 -15 228 -14 158 -14 181 1 253 25 125 12 114 117 106 120
-9 129 -14 121 -64 -9 -54 6 -70 66 -70 36 0 70 11 133 41 148 71 174 60 258
-105 78 -151 100 -180 166 -213 l58 -28 404 1 404 1 -6 -76 c-8 -92 2 -140 37
-181 16 -20 28 -49 32 -82 10 -77 84 -179 254 -349 147 -148 225 -209 266
-209 38 0 74 -18 86 -44 14 -31 -1 -71 -48 -128 -19 -22 -39 -57 -45 -78 -14
-47 1 -77 59 -114 103 -65 102 -106 -4 -340 -83 -183 -118 -319 -149 -581 -23
-201 -42 -304 -77 -435 -26 -95 -32 -134 -32 -220 0 -125 18 -175 60 -167 62
12 80 -69 93 -428 9 -240 15 -268 70 -319 49 -47 75 -136 105 -358 4 -36 3
-38 -23 -38 -15 0 -35 8 -44 18 -9 10 -56 103 -105 208 -140 302 -256 509
-447 799 -61 94 -131 203 -155 244 -54 90 -98 135 -156 157 -55 21 -104 12
-148 -26 -59 -52 -55 -122 13 -208 21 -27 69 -97 105 -156 37 -59 102 -160
144 -224 43 -64 102 -160 132 -212 29 -52 61 -106 70 -120 31 -46 92 -163 152
-295 122 -266 154 -334 243 -511 111 -219 129 -264 155 -379 11 -49 23 -100
26 -112 5 -18 2 -23 -13 -23 -67 0 -51 -100 19 -118 27 -7 33 -14 44 -60 24
-92 66 -132 138 -132 40 0 53 -17 79 -110 73 -258 87 -659 30 -922 -21 -100
-13 -120 89 -218 73 -71 78 -79 78 -118 0 -23 -9 -83 -20 -134 -20 -87 -45
-341 -36 -356 2 -4 9 -79 15 -167 25 -360 26 -365 52 -417 16 -32 19 -62 19
-240 1 -132 6 -229 15 -278 8 -41 19 -138 25 -215 6 -77 15 -169 21 -205 5
-35 7 -81 4 -102 -6 -34 -11 -39 -46 -48 -51 -14 -179 3 -229 29 -74 40 -117
62 -190 95 -41 19 -115 60 -165 91 -96 59 -260 141 -415 207 -52 22 -120 51
-150 64 -37 16 -75 24 -116 24 -45 0 -65 5 -77 18 -19 20 -37 122 -37 207 0
34 -7 87 -15 118 -22 85 -19 120 17 190 29 55 33 71 33 142 0 54 -6 94 -17
123 -26 61 -23 80 21 127 22 24 49 61 60 82 18 36 50 189 66 316 6 41 11 51
37 65 18 10 48 31 67 49 34 30 36 35 36 95 -1 58 -8 79 -97 274 -118 256 -128
282 -168 420 -18 63 -48 137 -71 176 -45 77 -48 106 -17 180 50 121 4 445 -80
557 -15 20 -48 44 -83 60 -48 21 -70 40 -117 98 -135 169 -238 284 -296 332
-35 28 -87 76 -117 107 -30 31 -81 79 -114 106 -138 115 -337 314 -440 438
-60 74 -137 163 -171 199 -33 37 -87 100 -119 141 -32 41 -82 100 -111 131
-61 65 -71 93 -57 158 7 30 8 140 4 311 -8 295 -13 315 -77 359 -49 34 -118
26 -155 -18 -43 -52 -49 -92 -49 -324 0 -205 -1 -219 -25 -284 -31 -85 -50
-214 -41 -275 13 -87 76 -150 163 -162 76 -11 79 -13 147 -94 36 -42 81 -95
101 -117 20 -22 85 -98 143 -170 59 -71 182 -204 274 -295 92 -91 172 -178
178 -195 7 -16 18 -77 27 -134 11 -83 26 -134 75 -255 39 -96 71 -197 89 -276
39 -176 118 -360 264 -614 130 -228 153 -273 208 -411 88 -220 96 -291 96
-900 1 -464 12 -906 27 -1060 27 -292 46 -350 142 -437 71 -64 111 -79 207
-77 98 2 107 -3 140 -76 25 -55 56 -88 97 -104 15 -6 85 -19 155 -31 70 -11
236 -49 368 -85 337 -91 396 -97 546 -59 119 29 121 25 121 -188 0 -167 3
-154 -55 -264 -10 -17 -22 -55 -27 -85 -13 -68 -12 -520 1 -579 14 -62 45 -99
103 -125 29 -13 57 -29 63 -37 6 -7 19 -51 28 -98 21 -103 33 -129 80 -166 93
-74 101 -85 114 -159 33 -191 48 -236 97 -302 30 -39 41 -93 53 -258 6 -78 20
-168 36 -225 14 -52 36 -142 49 -200 14 -58 42 -164 64 -235 46 -150 82 -303
123 -530 16 -88 36 -191 44 -230 20 -92 53 -332 106 -760 30 -249 33 -260 97
-371 62 -106 154 -303 222 -474 59 -148 148 -318 177 -338 54 -37 63 -57 146
-309 46 -142 120 -344 164 -448 101 -238 138 -337 228 -601 85 -250 110 -292
278 -473 115 -123 187 -227 187 -269 0 -54 73 -156 225 -312 63 -65 107 -122
140 -180 54 -96 165 -267 208 -322 16 -20 56 -55 88 -78 67 -47 104 -90 183
-210 103 -158 214 -315 300 -425 47 -61 107 -150 133 -200 113 -219 232 -379
466 -627 93 -98 145 -145 186 -166 60 -33 135 -106 245 -240 38 -45 87 -94
111 -107 l42 -25 6 -463 c6 -477 13 -606 47 -887 43 -356 102 -1027 140 -1580
25 -365 33 -425 59 -460 17 -24 20 -50 26 -216 4 -104 6 -394 4 -644 -5 -1024
-6 -971 14 -1022 24 -61 76 -108 121 -108 39 0 31 31 72 -305 22 -186 24 -219
13 -295 -10 -76 -9 -150 6 -295 2 -22 6 -123 9 -224 3 -101 13 -229 22 -285
16 -96 15 -240 -1 -386 -2 -25 -7 -96 -10 -158 -19 -400 -127 -847 -278 -1147
-63 -126 -70 -147 -74 -210 -4 -58 -1 -76 16 -103 35 -55 76 -74 147 -68 86 7
162 44 263 128 48 40 115 94 148 120 33 25 86 78 118 118 54 67 79 89 91 77 3
-2 9 -46 15 -98 9 -93 25 -137 84 -235 19 -32 28 -68 40 -175 18 -158 39 -207
106 -256 24 -18 55 -41 69 -52 69 -53 132 -248 271 -836 28 -119 54 -164 158
-277 108 -117 119 -133 270 -393 249 -428 284 -468 679 -804 209 -177 375
-345 446 -449 25 -37 66 -116 92 -177 109 -262 126 -303 140 -359 33 -126 96
-235 300 -513 49 -67 129 -181 178 -253 111 -164 138 -185 242 -185 55 0 76
-4 92 -18 45 -41 110 -258 123 -411 7 -90 14 -119 40 -171 41 -84 218 -318
328 -435 8 -8 43 -58 77 -111 34 -53 73 -106 85 -119 37 -35 99 -60 152 -60
26 0 62 -7 79 -16 17 -9 120 -103 227 -209 206 -202 214 -207 320 -220 30 -3
68 -13 85 -22 55 -29 133 -97 162 -143 60 -94 192 -247 385 -445 154 -159 205
-218 223 -258 23 -52 115 -189 176 -259 17 -21 84 -76 148 -123 81 -59 132
-105 164 -148 26 -34 108 -143 182 -242 265 -354 440 -518 574 -536 30 -4 59
-12 65 -18 14 -14 26 -86 27 -159 0 -82 18 -116 79 -146 74 -38 149 -113 262
-262 57 -75 143 -176 191 -223 l89 -87 -17 -32 c-35 -72 9 -144 122 -201 38
-19 108 -56 156 -83 101 -55 174 -87 318 -139 329 -118 421 -158 542 -236 59
-38 83 -48 128 -51 46 -3 60 0 84 19 43 34 59 80 45 132 -21 82 -174 198 -348
265 -161 63 -320 123 -416 158 -55 20 -142 59 -193 86 -81 44 -92 53 -86 72
12 43 41 52 143 46 64 -3 122 -26 153 -60 35 -39 62 -38 104 4 l34 34 -2 94
c-2 83 1 99 25 150 37 77 36 168 -1 168 -8 0 -32 -18 -52 -40 -30 -32 -44 -40
-73 -40 -67 0 -117 32 -117 75 0 28 -43 65 -75 65 -34 0 -49 -24 -41 -70 8
-52 -12 -92 -57 -113 -80 -38 -165 -30 -219 21 -37 34 -71 124 -59 155 11 29
75 57 148 64 48 5 54 3 83 -26 41 -40 50 -39 50 7 0 63 -27 82 -122 83 -35 1
-74 4 -88 8 -28 8 -29 21 -15 155 9 77 3 86 -54 86 -58 0 -112 -44 -156 -129
-14 -27 -16 -49 -12 -98 4 -35 2 -63 -2 -63 -15 0 -42 50 -67 123 -13 38 -35
85 -49 103 -26 33 -90 74 -118 74 -30 0 -139 63 -162 94 -44 57 -31 86 39 86
17 0 41 7 53 15 19 14 26 13 68 -5 87 -37 167 -18 213 50 20 30 23 45 20 97
-5 74 -20 99 -214 339 l-123 152 25 23 c13 12 24 29 24 38 0 21 -106 121 -129
121 -10 0 -21 -7 -25 -15 -3 -8 -9 -15 -14 -15 -5 0 -77 85 -160 188 -301 375
-338 408 -602 541 -260 132 -364 215 -527 427 -43 56 -136 170 -208 254 -238
280 -373 444 -481 585 -124 162 -234 300 -348 436 -137 163 -397 486 -468 582
-38 51 -98 127 -133 169 -36 42 -75 98 -87 125 -11 26 -53 100 -93 164 -40 64
-109 190 -153 280 -44 90 -115 227 -157 304 -43 77 -102 187 -133 245 -30 58
-107 197 -170 310 -173 309 -216 389 -309 580 -47 96 -105 209 -128 250 -42
75 -149 279 -220 420 -51 101 -111 191 -141 214 -83 61 -204 -1 -204 -104 1
-50 28 -111 185 -410 76 -146 191 -368 255 -495 64 -126 144 -279 178 -340 77
-139 106 -205 95 -216 -5 -5 -28 4 -53 21 -25 17 -48 30 -51 30 -16 0 -179 97
-229 135 -145 112 -423 422 -463 517 -8 18 -45 67 -82 108 -219 241 -643 814
-660 891 -4 17 -19 45 -34 62 -15 18 -47 77 -71 132 -25 55 -113 235 -196 401
-83 165 -160 325 -172 355 -11 30 -38 92 -59 139 -81 174 -104 258 -133 489
-8 65 -21 108 -54 180 -25 53 -50 116 -56 141 -26 98 -71 154 -153 190 -57 25
-68 41 -101 149 -38 120 -53 218 -54 355 -1 94 -8 144 -31 240 -16 67 -34 147
-40 178 -6 31 -20 76 -32 99 -11 23 -36 103 -55 178 -28 108 -33 147 -28 188
5 43 3 54 -10 59 -9 3 -16 12 -16 19 0 7 -20 39 -45 71 -51 65 -59 89 -81 229
-8 55 -21 122 -29 149 -19 63 -19 127 0 252 18 120 21 590 4 692 -9 53 -8 86
4 160 8 50 13 121 11 156 l-2 65 36 3 c55 4 54 33 -3 96 -46 51 -47 53 -40
102 4 28 7 108 7 179 0 101 3 131 14 135 33 13 7 137 -32 159 -14 8 -15 64
-13 435 3 421 3 428 -19 475 l-22 48 43 -34 c84 -69 117 -75 117 -22 0 78 -64
168 -133 186 -55 14 -73 36 -50 61 9 10 26 18 37 18 53 1 70 41 70 170 0 118
-13 161 -54 170 -14 3 -35 21 -47 39 -26 39 -48 129 -39 164 12 50 118 60 215
21 32 -13 43 -23 48 -45 7 -36 29 -55 74 -62 36 -5 60 -16 232 -105 54 -28
118 -54 143 -58 24 -3 65 -20 90 -37 59 -39 142 -141 155 -192 23 -89 29 -93
143 -111 31 -4 52 -18 96 -63 41 -42 84 -72 154 -107 118 -59 169 -101 201
-164 14 -27 40 -64 58 -82 51 -49 65 -77 81 -153 9 -44 21 -74 32 -80 46 -27
83 -70 126 -147 52 -93 77 -121 101 -112 23 8 79 -29 110 -73 44 -65 57 -105
50 -163 l-6 -53 54 6 c30 3 68 8 84 12 43 8 55 -5 64 -66 8 -61 16 -79 36 -79
21 0 45 -29 45 -54 0 -32 45 -96 91 -130 54 -41 87 -92 99 -156 13 -71 65
-148 127 -189 44 -30 54 -32 118 -30 99 3 105 1 105 -20 0 -34 24 -44 98 -36
60 6 69 4 86 -14 22 -25 16 -61 -20 -108 -38 -50 -32 -75 29 -124 91 -74 128
-113 146 -154 26 -57 156 -200 313 -343 221 -201 319 -272 376 -272 28 0 36
-16 33 -63 -3 -51 15 -70 107 -114 51 -24 76 -42 82 -59 19 -50 269 -142 352
-130 20 4 58 17 83 31 53 28 65 25 122 -26 25 -23 60 -43 87 -50 43 -11 86
-40 86 -59 0 -15 61 -70 78 -70 29 0 120 -47 230 -119 176 -115 164 -112 424
-109 l224 3 79 -46 c44 -25 88 -49 98 -52 27 -10 52 7 98 69 65 85 64 85 196
20 63 -31 125 -56 138 -56 16 0 33 11 47 31 43 58 135 89 270 89 98 0 127 -8
175 -50 22 -20 44 -30 66 -30 39 0 126 39 177 80 78 62 119 73 249 66 125 -7
131 -5 163 45 29 46 77 51 538 60 482 9 593 21 701 78 67 35 116 40 287 27
l112 -9 0 1820 c0 1683 -1 1822 -17 1834 -24 21 -53 89 -53 129 0 83 -63 107
-105 41 l-25 -40 -30 31 c-31 30 -32 31 -110 25 -69 -4 -83 -2 -104 14 -13 11
-27 32 -31 49 -16 75 -71 99 -130 59 -63 -44 -165 -209 -165 -269 0 -26 4 -30
27 -30 14 0 41 11 58 24 96 73 135 20 135 -181 0 -134 -13 -196 -47 -223 -38
-30 -150 -63 -193 -57 -52 7 -191 78 -200 102 -4 11 -10 52 -14 90 -12 126
-33 147 -146 148 -44 0 -65 -4 -80 -18 -26 -24 -25 -31 10 -67 39 -38 38 -61
-6 -145 -48 -91 -60 -102 -126 -113 -72 -11 -102 -28 -158 -84 -51 -53 -74
-57 -141 -26 -55 25 -107 26 -116 3 -4 -9 3 -33 15 -54 30 -52 28 -68 -13 -85
-72 -30 -118 -9 -136 62 -6 25 -17 43 -23 41 -6 -2 -30 -39 -53 -83 -83 -157
-134 -163 -281 -33 -24 20 -64 45 -89 53 -148 51 -199 -28 -71 -107 36 -23 51
-52 43 -87 -8 -36 -80 -110 -107 -110 -11 0 -32 15 -46 32 -61 74 -112 117
-153 128 -67 18 -96 5 -176 -77 l-71 -75 -100 7 -99 7 -57 -51 c-45 -41 -63
-51 -92 -51 -41 0 -109 32 -118 55 -19 50 8 79 84 91 56 8 87 24 122 61 58 61
75 158 38 218 -22 36 -51 50 -120 60 -64 9 -87 27 -104 84 -20 69 -32 89 -66
106 -54 28 -104 19 -309 -55 -89 -32 -138 -43 -220 -51 -258 -24 -514 -95
-591 -165 -21 -19 -40 -34 -44 -34 -3 0 -5 31 -3 69 3 86 -12 108 -103 163
-70 42 -110 82 -110 111 0 35 -20 57 -51 57 -16 0 -72 -9 -124 -21 -53 -11
-104 -18 -114 -14 -13 4 -22 22 -30 64 -12 63 -57 143 -99 178 -33 28 -108 30
-225 8 -137 -26 -159 -20 -182 48 -17 50 -53 69 -142 74 -112 6 -143 12 -143
28 0 23 -47 60 -149 117 -117 66 -175 119 -190 174 -16 58 -45 92 -93 105 -26
7 -62 30 -97 63 -71 66 -114 96 -139 96 -38 0 -44 23 -37 123 7 94 0 130 -29
149 -23 15 -62 7 -106 -22 -25 -16 -52 -30 -60 -30 -8 0 -45 31 -81 70 -39 41
-85 78 -110 89 -50 21 -83 55 -161 161 -95 130 -133 159 -196 147 -38 -7 -58
7 -81 57 -21 48 -77 88 -141 101 -103 21 -140 57 -140 135 0 59 -24 98 -74
121 -23 10 -50 26 -59 36 -19 22 -36 92 -37 149 0 50 -25 79 -83 94 -103 27
-153 43 -164 52 -7 6 -13 25 -13 43 0 41 -29 67 -103 91 -76 25 -190 84 -292
152 -128 85 -165 117 -238 207 -111 138 -198 204 -270 205 -57 0 -137 57 -137
97 0 57 -54 111 -160 161 -25 11 -134 62 -243 112 -112 51 -223 110 -255 134
-31 24 -79 57 -106 72 -26 16 -62 48 -78 70 l-30 42 17 78 c18 87 17 185 -3
192 -11 3 -24 -8 -69 -65 -10 -12 -29 -25 -43 -28 -28 -6 -49 22 -190 256 -42
69 -117 179 -166 245 -116 153 -174 239 -174 257 0 8 -7 20 -16 28 -8 7 -25
31 -36 53 -52 103 -132 202 -298 371 -104 105 -206 219 -245 275 -37 52 -91
122 -119 155 -91 105 -150 187 -233 322 l-51 81 30 48 c43 68 66 126 74 183 7
54 -1 75 -52 135 -18 21 -43 67 -54 101 -30 89 -43 99 -128 90 -77 -8 -112 3
-112 34 0 24 -24 44 -47 39 -48 -9 -51 -101 -4 -124 36 -18 43 -30 43 -69 0
-25 -7 -45 -21 -58 -11 -12 -22 -19 -24 -16 -22 30 -86 148 -132 239 -31 63
-67 129 -80 145 -18 25 -23 46 -27 122 -5 108 -15 125 -90 147 -27 8 -65 25
-84 38 -39 26 -74 89 -67 118 3 11 36 43 74 71 118 87 108 119 -51 163 -30 9
-69 24 -86 35 -27 16 -32 26 -37 72 -8 66 -27 84 -102 98 -30 6 -80 16 -111
22 -74 14 -116 53 -192 177 -61 98 -93 136 -134 156 -20 10 -24 22 -29 83 -4
39 -10 76 -13 81 -4 6 5 28 20 49 40 59 32 128 -33 268 -28 61 -62 141 -77
178 l-27 68 22 30 c28 40 61 51 126 43 52 -6 53 -6 53 20 0 19 -21 49 -74 106
-54 57 -79 93 -91 129 -20 60 -45 81 -100 81 -58 0 -83 9 -92 34 -4 11 -6 97
-4 189 2 137 0 172 -13 191 -20 32 -62 41 -92 21 -24 -15 -24 -15 -25 17 0 45
-8 107 -24 208 -8 47 -24 153 -35 235 -12 83 -28 177 -35 210 -12 52 -33 155
-49 248 -22 124 -31 167 -57 277 -16 69 -45 176 -65 239 -19 62 -44 153 -55
203 -11 49 -31 128 -44 175 -41 141 -57 401 -59 948 -1 259 -6 547 -10 640 -9
190 -21 234 -75 276 -96 73 -90 62 -99 189 -8 133 -8 386 0 480 4 36 18 107
32 158 35 128 59 305 60 448 1 107 -1 124 -18 143 -17 18 -20 41 -24 174 -5
160 8 351 29 430 l13 47 -51 47 c-45 42 -52 54 -58 98 -11 88 -15 98 -66 147
-27 26 -49 49 -50 50 0 2 -4 89 -9 193 -7 165 -11 199 -34 263 -30 87 -55 202
-91 412 -34 202 -68 354 -105 465 -41 127 -49 170 -61 324 -14 200 -24 268
-84 566 -99 497 -118 663 -155 1385 -11 218 -22 299 -50 382 -28 83 -40 269
-40 642 0 523 17 741 80 1046 21 102 50 262 65 355 24 158 49 271 74 338 6 15
40 59 76 97 l66 70 -7 84 c-7 93 9 164 48 206 19 20 27 22 83 16 83 -8 90 0
82 103 -3 43 -14 98 -23 122 -27 71 -28 109 -4 171 19 51 58 98 81 98 20 0 38
-35 44 -87 10 -87 23 -119 61 -153 32 -27 41 -30 105 -30 91 0 134 -22 222
-113 68 -71 89 -109 68 -130 -16 -16 -124 -21 -166 -7 -20 7 -39 9 -42 6 -8
-8 53 -76 100 -111 22 -16 74 -41 115 -55 128 -43 132 -95 9 -110 -77 -9 -114
-29 -123 -65 -8 -34 17 -70 74 -105 99 -61 132 -99 132 -152 0 -14 18 -59 39
-100 69 -131 138 -403 128 -509 -5 -61 0 -76 49 -131 33 -37 43 -63 64 -170 6
-32 31 -122 56 -200 56 -179 77 -293 68 -355 -6 -44 -6 -46 15 -40 33 8 82
-40 121 -120 31 -62 34 -76 35 -160 0 -81 3 -95 25 -125 21 -27 25 -44 25 -99
0 -40 5 -72 13 -82 7 -8 41 -25 74 -36 79 -27 101 -46 86 -75 -6 -11 -19 -31
-30 -43 -32 -35 -17 -66 60 -122 67 -49 94 -83 106 -133 9 -38 50 -83 119
-130 33 -22 87 -67 120 -98 63 -61 106 -80 184 -80 61 0 160 -28 255 -70 232
-105 1006 -286 1725 -404 250 -42 1199 -161 1393 -175 253 -20 588 -31 1227
-42 790 -13 1471 -1 1978 36 493 35 713 47 773 39 108 -13 124 -72 23 -86 -57
-9 -101 -28 -144 -64 -15 -13 -64 -35 -109 -49 -154 -49 -337 -80 -973 -170
-277 -38 -356 -63 -410 -127 -15 -18 -41 -43 -57 -54 l-29 -22 47 -27 46 -27
31 37 c40 49 117 85 183 85 67 0 147 -40 183 -92 23 -35 29 -38 56 -31 17 4
60 8 96 8 87 0 149 -36 196 -114 22 -36 47 -62 75 -78 24 -13 53 -37 65 -53
20 -25 28 -28 65 -23 121 13 301 48 382 73 95 29 183 45 301 55 115 10 221 34
394 91 90 30 199 59 241 66 l77 12 11 41 c12 44 64 105 115 132 23 13 56 18
115 18 l82 1 83 80 c253 248 488 454 544 475 30 11 35 22 43 102 9 82 23 98
99 121 70 21 125 51 152 85 13 16 52 76 87 132 85 141 240 361 305 434 76 86
86 103 191 304 119 226 170 313 208 350 23 22 31 42 38 90 8 54 14 66 53 104
29 29 52 63 66 103 28 74 66 134 87 134 20 0 44 59 44 108 0 80 69 292 128
392 19 32 27 40 30 28 5 -24 14 -23 40 5 33 35 44 83 37 167 -8 90 2 121 81
255 57 97 104 210 104 251 0 34 26 94 55 124 33 35 61 101 79 192 23 110 51
179 101 247 51 69 93 95 136 86 25 -6 30 -3 39 20 16 43 1 96 -36 132 -19 17
-34 39 -34 47 0 9 14 45 32 80 18 36 29 69 25 73 -4 4 -24 1 -44 -6 -33 -12
-38 -12 -50 5 -7 10 -13 26 -13 36 0 33 28 86 53 103 32 20 60 87 91 212 40
158 49 243 43 373 -5 112 -4 123 19 168 14 29 91 120 189 224 164 175 218 218
274 218 32 0 163 34 326 85 77 24 156 46 175 50 19 4 43 9 53 11 16 5 17 61
17 989 l0 984 -47 -5 c-36 -4 -55 -1 -74 13 -91 63 -116 75 -170 85 -33 6 -59
15 -59 22 0 7 16 36 35 66 63 100 56 104 -190 105 -208 0 -226 -7 -264 -100
-29 -71 -37 -160 -19 -194 20 -37 61 -63 112 -68 71 -8 156 -91 156 -152 0
-15 -10 -23 -37 -30 -60 -15 -271 -40 -405 -47 -254 -14 -542 41 -563 107 -12
35 75 198 144 272 39 41 63 45 165 26 31 -5 62 -9 67 -7 12 4 -117 111 -173
143 -24 14 -53 25 -65 25 -32 0 -45 30 -32 70 9 26 9 35 -4 47 -23 23 -51 2
-78 -57 -18 -39 -32 -54 -64 -70 -53 -25 -101 -26 -114 -2 -7 13 -5 47 5 108
38 229 -29 258 -296 128 l-138 -67 -109 89 c-234 192 -273 249 -281 413 l-4
96 32 33 c28 30 31 38 25 70 -11 63 -54 123 -159 227 -153 150 -180 192 -136
215 15 8 33 6 71 -6 98 -32 319 -1 319 46 0 29 -35 65 -129 129 -50 34 -106
81 -126 106 -26 31 -50 49 -84 60 -50 16 -104 64 -116 103 -21 71 -347 202
-545 219 -89 7 -124 23 -150 66 -22 36 -25 69 -9 98 14 27 4 54 -26 67 -46 21
-208 35 -417 36 -204 1 -207 1 -240 -24 -56 -41 -196 -39 -222 4 -13 21 10 41
65 56 57 15 104 52 104 80 0 25 -12 32 -76 45 -15 2 -49 25 -77 50 -87 78
-137 93 -417 120 -271 26 -359 47 -413 99 -31 29 -38 31 -105 31 -40 0 -131
-6 -202 -13 -101 -10 -166 -11 -290 -2 -268 19 -500 24 -534 12 -41 -14 -40
-4 8 66 72 106 88 169 49 196 -38 27 -69 19 -120 -28 -65 -61 -384 -203 -703
-312 -157 -55 -577 -175 -712 -204 -148 -32 -177 -16 -138 77 8 19 15 48 15
63 0 50 -17 55 -206 55 -188 0 -214 6 -180 44 29 32 166 98 251 122 91 25 206
29 253 10 17 -7 32 -17 32 -21 0 -18 88 -42 155 -43 92 0 115 12 115 61 0 51
34 82 129 121 96 40 147 79 197 149 47 66 95 102 135 102 16 0 47 7 69 16 41
17 59 47 46 80 -9 23 -72 14 -288 -40 -258 -66 -528 -106 -705 -106 -76 0 -93
6 -93 35 0 43 100 121 285 221 l90 48 -45 8 c-25 3 -76 7 -115 7 -78 1 -97 -8
-163 -75 -25 -26 -61 -50 -98 -63 -116 -44 -414 -70 -414 -37 0 21 51 57 156
109 117 59 156 91 152 126 -4 39 -35 32 -206 -42 -250 -109 -352 -138 -552
-157 -130 -12 -219 -32 -264 -59 -41 -24 -118 -48 -184 -56 -77 -9 -127 -32
-157 -71 -23 -29 -32 -34 -69 -34 -50 0 -102 20 -164 61 -109 74 -159 85 -186
44 -36 -54 -86 -15 -86 68 0 60 22 105 56 113 29 7 125 1 224 -15 138 -23 360
26 454 100 38 30 60 77 45 95 -18 22 -53 17 -245 -31 -199 -51 -284 -58 -373
-31 -72 21 -129 20 -182 -3 -26 -12 -54 -17 -75 -14 -67 11 -154 -67 -154
-139 0 -49 -17 -63 -98 -81 -38 -9 -100 -32 -137 -51 -49 -27 -79 -36 -114
-36 -65 0 -179 -31 -279 -75 -46 -20 -109 -41 -140 -47 -83 -15 -110 -27 -159
-70 -46 -40 -81 -52 -178 -63 -130 -15 -275 -99 -441 -257 -57 -55 -119 -105
-137 -113 -37 -15 -113 -91 -209 -208 -92 -110 -162 -167 -206 -167 -33 0 -69
-36 -75 -77 -9 -53 -32 -82 -83 -103 -65 -28 -77 -54 -85 -190 -4 -64 -13
-137 -19 -160 -13 -49 -59 -100 -89 -100 -25 0 -61 -45 -61 -77 0 -46 -30 -94
-100 -163 -50 -49 -70 -76 -70 -94 0 -13 5 -28 11 -31 24 -15 29 -55 12 -93
-15 -32 -18 -75 -19 -318 -1 -236 -4 -285 -18 -311 -34 -68 -84 -88 -386 -158
-252 -59 -386 -68 -470 -33 -69 30 -69 42 -6 153 54 94 57 125 16 172 -16 18
-30 43 -30 54 0 28 33 122 69 199 40 83 42 148 6 205 -35 57 -33 82 9 99 53
22 54 34 2 83 l-47 43 34 33 c22 20 40 51 50 83 31 106 79 161 161 184 41 11
52 11 89 -4 61 -24 71 -8 62 104 -8 106 -40 186 -79 196 -34 8 -51 -7 -72 -64
-40 -108 -89 -135 -117 -64 -24 59 -37 147 -37 244 0 95 13 140 50 173 27 24
55 78 65 123 9 45 -15 82 -55 82 -50 0 -57 22 -47 156 9 131 26 188 54 182 16
-3 18 -16 19 -99 1 -110 6 -129 33 -129 15 0 22 10 28 43 8 40 11 42 43 42 76
0 78 103 5 242 -62 117 -60 144 17 232 61 70 46 124 -37 138 -20 3 -39 13 -42
21 -10 25 37 154 67 184 23 22 34 27 58 22 40 -8 46 6 32 79 -11 53 -10 71 4
127 22 85 58 140 92 140 21 0 29 -9 50 -57 37 -83 58 -103 111 -103 61 0 64
18 20 104 -21 39 -37 81 -37 92 0 12 25 70 55 129 80 155 75 201 -31 301 -39
37 -54 58 -54 78 0 15 20 70 44 124 49 108 66 160 67 212 l0 35 15 -40 c8 -22
24 -48 35 -57 29 -25 85 -24 99 1 5 11 15 80 20 153 21 276 30 353 51 429 24
89 18 109 -30 109 -34 0 -71 26 -71 49 0 27 37 69 78 90 74 38 121 119 122
208 0 67 -27 99 -125 148 l-70 34 52 1 c67 0 101 -13 113 -45 19 -49 83 -21
109 48 6 16 11 50 11 77 0 70 -21 91 -100 101 -66 8 -106 29 -128 70 -17 32
-10 146 15 219 l18 55 69 -2 c66 -2 68 -2 52 16 -39 43 -44 203 -10 388 21
118 39 162 84 203 25 23 40 46 40 61 0 33 38 112 88 183 49 69 82 152 82 205
0 46 26 136 51 177 34 56 26 89 -40 159 -135 144 -132 341 7 625 l47 95 0 110
c-1 61 -3 150 -5 198 -5 95 0 107 51 107 35 0 49 18 49 60 0 37 -28 86 -86
152 -42 47 -77 115 -70 135 5 11 17 13 61 8 71 -9 72 4 5 80 -82 94 -91 158
-27 188 28 13 37 23 37 41 0 32 -12 39 -84 47 -67 8 -81 18 -72 52 9 38 94
125 145 150 40 19 51 31 81 93 44 90 74 128 179 237 l86 88 -35 27 c-88 69
-152 125 -157 140 -12 29 138 132 172 118 8 -3 15 -16 15 -29 0 -29 24 -52 44
-44 24 9 39 85 34 169 -7 117 -29 131 -113 75 -58 -39 -115 -60 -138 -51 -47
18 6 133 111 242 63 65 86 67 146 12 47 -43 95 -72 108 -64 20 13 6 72 -32
134 -47 76 -50 107 -14 141 39 36 62 89 95 217 17 64 50 158 74 207 51 104 62
147 70 269 10 157 67 363 131 475 15 25 62 80 104 122 52 50 81 88 90 115 7
21 18 42 24 46 20 14 69 8 112 -13 52 -24 70 -65 54 -119 -6 -19 -10 -50 -10
-67 0 -29 3 -33 25 -33 34 0 73 26 91 62 14 27 14 35 -2 83 -21 69 -72 146
-106 163 -20 9 -38 10 -75 2 -64 -15 -111 -5 -124 24 -16 34 -1 55 99 137 120
100 303 279 373 367 51 64 59 79 59 116 0 32 -8 52 -30 82 -36 47 -36 52 -7
63 35 13 122 -4 289 -59 l153 -50 54 57 c78 84 127 151 174 239 45 84 90 124
137 124 66 0 290 146 383 250 25 28 53 70 62 95 10 24 23 46 30 49 8 3 30 -8
51 -25 69 -55 138 -36 257 70 78 70 93 79 162 97 63 17 314 17 370 0 71 -21
78 -90 19 -177 -14 -20 -27 -52 -30 -71 -8 -46 20 -106 52 -114 40 -10 56 12
83 113 15 56 53 76 141 77 l65 1 -3 -32 c-4 -41 10 -48 54 -27 53 25 76 68 70
127 -9 87 -73 157 -143 157 -58 0 -134 22 -161 46 l-27 24 28 25 c45 40 107
28 184 -34 50 -40 99 -59 170 -67 71 -8 88 -17 105 -52 15 -31 49 -40 67 -19
6 8 15 34 19 58 12 69 36 65 129 -24 138 -132 180 -149 244 -102 74 54 96 66
149 81 133 39 250 142 237 211 -8 40 24 53 135 53 178 0 253 -33 264 -115 10
-78 13 -85 37 -85 47 0 172 95 194 147 27 66 -11 97 -91 75 -47 -12 -55 -9
-34 15 24 28 64 112 82 175 12 43 25 64 51 84 66 50 250 112 455 154 75 15 86
20 100 46 11 21 40 41 101 70 116 57 215 157 234 236 6 23 3 28 -18 33 -13 4
-50 0 -83 -9 -32 -8 -59 -14 -61 -13 -1 2 35 40 81 86 l83 83 114 -65 c191
-108 260 -131 354 -118 80 12 135 36 142 62 7 27 37 37 132 45 110 9 149 1
153 -34 4 -39 40 -53 120 -50 85 4 123 29 123 79 0 32 -4 36 -81 76 -87 44
-181 68 -308 78 l-79 7 44 20 c87 39 125 51 194 57 l70 6 5 45 c3 25 9 51 13
58 6 8 43 12 130 12 139 0 164 9 169 61 2 19 12 38 24 46 19 12 25 11 62 -20
47 -39 63 -43 224 -56 80 -7 133 -17 164 -30 56 -25 101 -26 163 -4 45 15 48
15 91 -5 25 -12 70 -40 100 -62 30 -22 77 -48 105 -58 36 -13 57 -28 76 -56
35 -52 71 -70 145 -70 60 0 66 2 131 49 10 7 36 -2 97 -34 92 -49 131 -51 142
-7 18 72 -20 105 -137 117 -90 9 -139 24 -139 44 0 22 -61 66 -146 106 -90 43
-134 74 -134 94 0 25 99 45 298 61 226 18 193 34 279 -130 31 -60 74 -128 95
-149 21 -22 38 -45 38 -50 0 -5 -18 -32 -40 -59 -22 -28 -40 -57 -40 -66 0 -8
22 -36 49 -61 68 -64 83 -97 75 -166 -8 -63 4 -85 46 -85 15 0 42 11 61 25 51
36 86 50 185 73 121 28 271 49 446 63 127 10 165 9 270 -6 68 -9 222 -20 343
-25 237 -9 274 -16 379 -75 48 -28 52 -28 235 -30 322 -4 437 -50 604 -242 33
-38 67 -87 78 -110 13 -30 29 -48 57 -62 22 -11 42 -27 45 -34 3 -8 -5 -38
-19 -67 -27 -57 -30 -90 -12 -108 14 -14 57 -16 76 -4 10 7 12 1220 10 6035
l-3 6027 -60 -40z m-6645 -25945 c118 -9 357 -31 530 -50 173 -19 432 -46 575
-60 330 -32 432 -45 795 -101 396 -61 552 -81 706 -94 167 -13 262 -40 551
-157 128 -51 239 -93 248 -93 45 0 469 -155 642 -234 56 -26 130 -52 165 -58
66 -12 65 -11 156 -116 31 -36 47 -45 97 -57 33 -7 105 -32 160 -55 139 -58
230 -87 332 -105 169 -31 193 -36 215 -54 l22 -18 -35 -19 c-27 -15 -56 -19
-139 -19 -103 0 -106 1 -170 37 -120 68 -350 150 -618 219 -84 21 -212 62
-285 90 -203 79 -556 163 -940 223 -188 30 -221 34 -377 45 -95 7 -142 16
-195 36 -136 51 -602 158 -1025 235 -228 42 -341 67 -418 94 -81 29 -277 65
-682 125 -503 75 -542 80 -821 91 -272 11 -449 35 -449 60 0 11 60 31 124 40
93 14 614 10 836 -5z m-1861 -495 c129 -5 314 -17 410 -27 l176 -18 -105 -7
c-58 -4 -226 -14 -375 -23 -670 -39 -1214 -112 -1303 -173 -50 -34 -125 -62
-167 -62 -46 0 -93 -20 -137 -59 -50 -44 -98 -61 -168 -61 -68 0 -160 -27
-229 -68 -25 -14 -89 -68 -143 -119 -54 -51 -113 -99 -132 -107 -27 -11 -35
-22 -44 -58 -24 -95 -267 -278 -369 -278 -41 0 -41 -12 -3 -69 17 -24 30 -49
30 -55 0 -6 -39 -49 -87 -95 l-88 -83 86 5 c98 7 145 23 196 67 32 28 40 30
99 28 l64 -2 49 51 c36 38 59 53 85 57 20 3 51 8 70 11 47 8 80 36 100 89 23
59 66 81 145 73 42 -5 60 -12 73 -29 10 -13 23 -29 28 -35 6 -7 28 -13 50 -13
45 0 55 17 45 74 -10 51 1 73 50 102 74 43 230 94 288 94 42 0 88 15 237 76
199 81 291 116 356 133 23 6 71 33 108 60 80 60 146 83 331 116 77 14 239 46
360 70 554 112 1146 167 1270 119 22 -9 69 -21 104 -27 121 -20 336 23 378 77
25 32 56 47 74 36 10 -7 14 -28 14 -72 0 -58 2 -63 23 -66 32 -5 51 14 78 75
27 59 55 83 101 83 46 0 73 -30 73 -79 0 -52 35 -81 95 -81 108 0 295 -74 326
-128 12 -21 50 -45 145 -91 71 -35 160 -83 197 -108 93 -61 155 -83 267 -94
195 -18 355 -95 449 -216 73 -93 148 -94 239 -3 56 55 92 74 165 84 55 8 60
-2 17 -37 -41 -35 -51 -65 -39 -118 12 -51 81 -203 98 -213 14 -9 15 -188 1
-346 -13 -146 -19 -180 -34 -180 -6 0 -42 27 -79 60 -76 67 -123 94 -181 103
-40 6 -76 31 -76 53 0 37 -60 65 -213 99 -91 20 -133 50 -167 121 -28 56 -96
108 -210 162 -104 48 -160 89 -201 145 -36 50 -93 87 -134 87 -30 0 -69 18
-118 53 -20 14 -56 21 -149 27 -145 10 -155 13 -189 53 -25 29 -29 30 -105 29
-88 -1 -150 -19 -202 -58 -47 -37 -111 -54 -222 -60 -116 -7 -225 11 -334 55
-134 54 -199 59 -921 71 -656 11 -803 9 -860 -15 -16 -7 -50 -33 -75 -58 -36
-36 -51 -44 -71 -40 -31 6 -79 -13 -179 -71 -41 -24 -85 -47 -97 -51 -23 -6
-36 3 -95 73 -14 18 -31 32 -37 32 -6 0 -22 -25 -36 -55 -13 -30 -28 -55 -34
-55 -5 0 -24 18 -41 40 -18 23 -40 40 -52 40 -11 0 -50 -28 -86 -63 -89 -85
-118 -105 -162 -117 -36 -10 -53 -26 -133 -125 -46 -56 -87 -40 -87 34 0 48
-15 44 -41 -10 -29 -62 -83 -118 -153 -158 -63 -35 -98 -74 -121 -136 -25 -63
-16 -62 -285 -50 -170 7 -176 7 -202 -14 -39 -31 -48 -78 -41 -203 6 -106 6
-108 -16 -108 -12 0 -48 14 -81 30 -92 47 -150 35 -150 -29 0 -36 -25 -57 -79
-66 -64 -10 -208 -86 -274 -144 -32 -28 -61 -51 -64 -51 -3 0 -32 12 -65 27
-74 33 -84 28 -115 -53 -29 -77 -80 -123 -203 -182 -135 -65 -166 -87 -184
-133 -29 -72 -14 -188 26 -210 31 -17 101 -2 148 32 22 16 45 27 50 24 6 -4
10 -26 10 -51 0 -64 24 -112 80 -164 31 -28 50 -55 50 -68 0 -47 161 -121 285
-131 l80 -6 6 -39 c7 -42 32 -68 56 -59 12 5 14 16 9 54 -7 52 3 83 30 93 39
15 257 -42 383 -100 97 -45 122 -44 158 2 39 52 79 65 213 71 196 9 375 -27
420 -84 25 -32 26 -84 3 -106 -37 -33 -68 -31 -150 9 -75 37 -82 39 -178 39
-81 0 -106 -4 -129 -18 -24 -16 -27 -24 -22 -50 3 -18 15 -103 26 -191 12 -87
25 -169 30 -182 11 -28 46 -39 106 -30 60 8 103 31 116 64 36 88 63 134 107
180 63 66 90 77 139 56 83 -34 171 -149 287 -374 l80 -155 147 -7 c171 -7 246
-21 285 -51 26 -21 38 -22 208 -22 173 0 225 -8 225 -34 0 -14 -34 -37 -80
-55 -60 -23 -110 -72 -110 -107 0 -33 14 -39 88 -39 95 -1 578 30 718 45 150
16 453 75 723 141 101 24 200 44 219 44 31 0 44 -9 104 -71 79 -83 70 -82 226
-22 95 37 100 38 237 39 77 0 146 1 153 2 24 4 12 49 -24 85 -43 42 -90 53
-195 43 -79 -7 -110 -17 -162 -53 -31 -22 -44 -25 -85 -20 -66 8 -123 29 -136
50 -22 35 61 72 214 97 94 14 201 12 282 -6 47 -11 98 -15 147 -12 68 4 91 12
211 68 153 73 214 84 296 56 58 -19 163 -21 188 -3 22 16 15 52 -13 67 -50 26
-583 50 -1106 49 -411 0 -533 -8 -571 -38 -31 -25 -82 -28 -90 -6 -4 9 4 39
16 67 20 46 22 63 16 139 -6 74 -4 89 11 106 32 36 81 45 268 50 189 4 225 8
225 22 0 5 -18 31 -40 57 -54 65 -67 107 -45 140 27 42 77 56 232 64 181 10
201 21 356 179 260 267 463 554 482 683 8 50 63 129 105 150 75 38 245 12 297
-45 12 -12 28 -39 36 -59 18 -43 46 -63 106 -77 60 -13 89 -46 155 -173 70
-135 105 -188 124 -188 8 0 48 18 88 40 106 58 243 102 307 98 50 -3 52 -4 55
-34 3 -32 -5 -45 -137 -234 -28 -41 -57 -94 -63 -117 -13 -54 -57 -94 -133
-122 -56 -21 -92 -26 -425 -56 -619 -57 -1349 -186 -1367 -242 -13 -39 187
-75 422 -75 139 0 168 2 220 21 205 74 795 32 1062 -76 62 -25 77 -27 178 -23
251 8 240 9 275 -27 71 -73 171 -41 199 63 17 65 75 104 153 104 38 0 43 -29
24 -132 -28 -147 -23 -157 55 -118 28 15 76 24 157 31 64 6 129 17 144 25 37
19 52 48 38 74 -15 27 -36 36 -105 45 -167 20 -97 74 78 60 l90 -7 -6 188 c-5
192 -20 278 -51 313 -25 27 -37 72 -46 161 -10 110 -33 168 -69 176 -56 12
-54 8 -47 103 10 126 3 137 -122 190 -105 44 -153 83 -172 138 -16 43 0 70 50
83 54 14 115 -3 152 -42 15 -17 28 -34 28 -38 0 -12 65 -40 93 -40 35 0 74
-35 99 -87 26 -56 84 -100 213 -164 138 -68 187 -107 240 -189 126 -197 444
-340 755 -340 82 0 102 3 121 19 32 26 16 54 -35 62 -50 8 -65 24 -44 46 14
13 48 18 170 24 194 9 278 28 278 60 0 15 -62 80 -91 95 -39 20 -71 18 -120
-8 -66 -34 -258 -28 -318 11 -12 8 -12 14 -1 41 17 40 164 190 205 208 71 32
81 39 102 71 17 25 23 48 23 86 0 50 -3 56 -66 131 -96 114 -222 309 -229 352
-15 93 -76 168 -175 218 -99 51 -267 44 -292 -12 -21 -45 -78 -24 -101 38 -11
28 -44 71 -97 123 -44 44 -80 85 -80 92 0 6 16 24 35 39 39 29 45 58 16 74
-11 5 -84 21 -163 35 -171 29 -249 55 -385 126 -101 52 -102 53 -189 51 -84
-1 -89 1 -121 29 -49 43 -303 165 -415 200 -103 32 -131 49 -151 88 -19 37
-56 59 -137 81 l-75 20 155 -4 c251 -7 547 -65 768 -152 63 -25 182 -65 264
-90 83 -25 189 -63 237 -84 48 -21 175 -68 282 -105 477 -164 698 -284 910
-495 131 -130 175 -196 294 -446 88 -185 95 -205 105 -289 19 -173 11 -583
-21 -960 -50 -613 -132 -1071 -279 -1565 -40 -132 -68 -260 -70 -311 0 -4 -18
-29 -40 -55 -46 -56 -73 -130 -96 -264 -20 -122 -48 -204 -84 -256 -17 -23
-54 -93 -84 -155 -30 -63 -85 -180 -124 -260 -174 -365 -626 -1034 -809 -1200
-251 -227 -717 -434 -1313 -583 -555 -140 -981 -171 -2310 -171 -1105 0 -1436
17 -2065 105 -192 27 -422 58 -510 70 -591 78 -1421 245 -1735 350 -154 52
-229 87 -352 163 -130 81 -161 97 -191 97 -30 0 -39 -19 -28 -58 14 -48 53
-102 146 -200 62 -67 84 -97 76 -105 -20 -20 -89 11 -134 59 -49 53 -126 95
-214 118 -35 8 -81 25 -103 36 -95 49 -165 144 -142 195 12 25 23 29 104 40
113 15 106 95 -22 250 -232 282 -319 565 -515 1660 -36 204 -81 451 -100 550
-38 201 -48 311 -70 760 -20 395 -38 595 -72 769 -23 122 -25 145 -15 195 13
64 8 92 -24 140 -17 26 -21 39 -13 53 5 10 13 18 18 18 18 0 33 61 41 170 6
79 16 130 30 162 14 32 25 94 36 205 32 327 101 595 189 728 29 44 83 136 120
204 82 153 159 266 196 288 28 17 59 76 59 111 0 28 50 69 119 97 85 35 271
82 372 95 66 8 104 20 174 54 100 49 163 69 375 120 269 65 624 124 1005 166
105 12 309 37 455 56 146 20 344 39 440 43 256 11 830 12 1099 1z m-397 -1687
c97 -46 163 -111 183 -180 19 -65 47 -112 127 -212 71 -89 113 -169 123 -236
19 -134 163 -353 246 -375 22 -6 46 -22 56 -36 45 -65 97 -113 174 -158 46
-27 100 -62 120 -78 33 -25 69 -81 69 -106 0 -21 -132 -23 -385 -7 -305 20
-376 17 -411 -16 -13 -12 -24 -28 -24 -35 0 -22 -51 -54 -86 -54 -19 0 -34 3
-34 7 0 4 12 24 27 46 21 30 24 43 17 55 -17 27 -111 54 -209 59 -103 6 -127
16 -178 72 -48 53 -73 104 -86 174 -13 70 -20 84 -78 149 -61 69 -77 109 -63
154 18 52 8 64 -49 64 -53 0 -78 15 -85 53 -18 92 -41 176 -62 228 -36 88 -29
110 64 216 212 240 365 300 544 216z"/>
<path d="M25147 30730 c-27 -5 -65 -20 -85 -34 -47 -32 -85 -46 -124 -46 -24
0 -42 -12 -84 -54 -55 -58 -96 -76 -170 -76 -58 0 -69 -17 -55 -77 10 -39 9
-56 -3 -90 -19 -55 -76 -138 -163 -238 -96 -111 -119 -125 -207 -125 -167 0
-278 37 -342 115 -42 51 -98 85 -139 85 -71 0 -125 60 -161 178 -38 127 -40
132 -68 132 -58 0 -61 -80 -7 -199 40 -90 84 -228 121 -386 25 -109 75 -234
131 -328 45 -75 104 -147 123 -147 6 0 40 -25 76 -56 204 -174 184 -161 263
-169 247 -24 380 -66 664 -211 191 -97 227 -112 245 -103 60 32 191 123 221
153 46 46 52 67 33 124 -9 26 -25 106 -36 179 -24 158 -46 216 -94 244 -40 23
-49 41 -37 72 21 53 115 105 239 133 132 29 218 -1 344 -122 113 -107 149
-123 362 -154 297 -43 365 -79 381 -200 14 -99 34 -120 138 -139 64 -12 72
-15 103 -43 28 -25 125 -44 319 -63 303 -29 400 -54 495 -125 29 -22 74 -47
99 -55 78 -28 95 -39 119 -82 26 -47 48 -58 98 -48 l34 6 0 755 0 755 -107 -5
c-60 -3 -171 -8 -248 -11 -86 -4 -186 -15 -260 -30 -124 -25 -439 -68 -580
-80 -48 -4 -100 -2 -130 5 -91 20 -290 133 -455 257 -77 58 -127 86 -243 136
-22 10 -41 27 -47 42 -7 17 -28 34 -62 50 -135 61 -530 103 -701 75z"/>
<path d="M26339 28541 c-98 -38 -278 -181 -307 -245 -22 -46 -72 -100 -115
-122 -55 -29 -61 2 -17 94 36 76 38 111 8 139 -35 31 -43 34 -136 49 -49 8
-108 25 -135 39 -94 48 -140 26 -151 -74 -8 -73 -30 -95 -116 -116 -122 -31
-175 -87 -133 -142 10 -14 48 -41 83 -59 78 -41 114 -78 105 -108 -4 -12 -11
-42 -17 -68 -12 -56 -20 -60 -130 -62 -93 -1 -102 -8 -111 -86 -12 -99 -107
-250 -141 -225 -51 38 -68 45 -116 52 -82 12 -83 16 -68 272 8 140 9 214 2
221 -6 6 -48 -9 -124 -46 -168 -83 -258 -180 -235 -253 6 -21 16 -25 77 -36
57 -9 65 -34 34 -100 -29 -59 -71 -96 -188 -168 -112 -69 -121 -86 -129 -229
-3 -68 -10 -123 -17 -130 -8 -8 -22 -8 -53 1 -99 30 -110 57 -102 234 5 107 4
124 -11 136 -24 20 -84 3 -107 -29 -34 -46 -50 -249 -29 -361 6 -29 21 -70 35
-89 14 -20 25 -42 25 -50 0 -7 -25 -39 -54 -70 -30 -32 -57 -69 -60 -84 -4
-14 -8 -36 -11 -49 -7 -34 -62 -106 -90 -119 -34 -15 -54 4 -96 95 -24 52 -34
86 -34 124 0 65 -22 91 -120 139 -80 39 -151 54 -223 44 -83 -10 -101 -28
-192 -192 -19 -35 -61 -89 -92 -120 -48 -49 -62 -58 -92 -58 -81 0 -76 112 15
309 64 137 72 142 208 119 82 -14 104 -4 99 45 -5 53 -44 71 -156 76 -218 8
-425 -64 -578 -200 -147 -132 -334 -238 -454 -259 -36 -6 -92 -16 -124 -21
-115 -20 -288 -107 -434 -218 -205 -155 -237 -170 -372 -181 -54 -4 -103 -11
-109 -14 -14 -9 -14 -68 0 -138 9 -44 9 -61 -2 -84 -21 -44 -157 -112 -194
-98 -21 8 -26 50 -15 117 25 140 -43 169 -146 63 -32 -33 -66 -83 -88 -129
-42 -90 -52 -95 -159 -79 -89 14 -115 8 -123 -27 -17 -85 -30 -115 -69 -160
-33 -39 -46 -65 -55 -108 -33 -163 -101 -255 -230 -313 -8 -4 -19 -20 -24 -36
-21 -70 -31 -87 -81 -136 -108 -109 -111 -143 -12 -187 34 -16 83 -44 109 -64
66 -51 102 -67 145 -67 89 1 159 60 257 217 74 120 92 127 151 62 58 -65 101
-169 125 -303 12 -65 30 -145 41 -179 11 -34 23 -91 26 -127 5 -52 12 -70 33
-92 68 -67 303 -38 520 64 69 33 99 55 156 114 49 52 78 74 95 74 13 0 42 11
64 25 101 62 174 79 311 73 64 -3 99 -9 117 -21 36 -23 64 -21 98 8 16 13 46
27 67 30 77 12 96 21 112 50 15 27 22 30 62 29 50 0 90 -22 202 -109 143 -111
378 -212 464 -200 82 12 117 -40 70 -101 -19 -23 -23 -41 -23 -94 1 -122 69
-226 194 -295 118 -64 158 -120 186 -262 9 -44 42 -83 70 -83 35 0 71 -19 83
-44 6 -11 20 -43 31 -69 27 -63 54 -74 244 -92 171 -17 256 -36 297 -65 19
-13 37 -44 54 -88 49 -127 140 -186 287 -186 80 0 93 3 163 37 42 21 84 49 93
63 40 58 51 64 108 64 52 0 270 -51 365 -85 25 -9 70 -18 101 -22 l56 -6 -1
-111 c-1 -101 1 -114 22 -142 17 -22 25 -51 32 -116 8 -84 21 -125 44 -140 23
-15 65 -7 95 18 l32 26 39 -45 c45 -51 205 -137 255 -137 71 0 94 -54 55 -130
-11 -22 -20 -56 -20 -77 0 -32 8 -45 58 -93 41 -40 75 -62 120 -79 107 -40
142 -113 87 -180 -30 -35 -120 -60 -154 -42 -31 17 -56 13 -82 -15 -22 -23
-23 -27 -8 -52 32 -58 133 -95 195 -72 91 35 224 181 224 247 0 35 0 36 37 30
74 -12 111 -64 98 -133 -4 -24 -26 -57 -66 -101 -66 -70 -114 -161 -124 -235
-9 -60 2 -66 97 -50 85 15 177 59 235 113 53 49 115 78 164 79 59 0 80 25 86
100 8 89 15 100 66 100 56 0 109 -28 122 -63 11 -32 -3 -47 -43 -47 -32 0 -79
-26 -92 -50 -16 -31 21 -40 111 -29 100 12 132 1 154 -54 23 -58 43 -77 79
-77 73 0 245 141 266 218 12 47 27 61 72 68 40 7 111 -28 142 -69 11 -15 23
-48 26 -74 6 -57 33 -79 113 -91 l57 -9 0 424 0 423 -22 -5 c-69 -14 -362 -39
-478 -39 -118 0 -146 3 -225 27 -113 33 -230 54 -387 66 -141 12 -214 31 -257
66 -48 41 -97 56 -220 65 -162 13 -221 21 -221 30 0 13 -93 57 -190 90 -63 22
-110 45 -140 70 -25 20 -63 47 -85 58 -22 11 -55 36 -73 54 l-33 35 66 33 c78
40 155 49 246 30 33 -7 62 -10 65 -7 3 3 -17 23 -44 44 -28 21 -53 44 -56 50
-3 8 19 20 65 34 168 51 153 114 -32 139 -122 17 -279 -5 -279 -39 0 -5 -9
-13 -20 -16 -14 -4 -45 7 -98 38 -42 24 -133 72 -200 107 -127 64 -202 122
-202 156 0 87 -152 154 -352 154 -85 0 -97 9 -69 49 14 19 21 42 19 58 -3 27
-5 28 -64 28 -65 0 -86 10 -107 54 -20 42 -53 52 -125 39 -80 -15 -125 -2
-189 56 -64 57 -103 76 -179 87 -35 5 -73 15 -85 21 -11 7 -38 43 -60 80 -47
79 -128 140 -214 159 -52 12 -58 11 -85 -10 -29 -21 -30 -21 -30 -2 0 101 129
136 293 78 103 -36 175 -37 210 -1 47 47 47 127 0 164 -35 27 -138 27 -227 -1
-37 -11 -75 -17 -86 -14 -10 3 -24 23 -32 48 -16 52 -81 103 -182 143 l-71 29
95 8 c116 10 371 2 425 -14 22 -6 49 -19 60 -29 31 -27 55 -30 300 -40 610
-24 1411 -139 1846 -266 247 -71 358 -94 544 -109 99 -8 266 -27 370 -41 105
-14 237 -32 295 -39 120 -16 365 -35 458 -35 l62 0 -1 598 c-1 328 -5 576 -8
550 -10 -69 -20 -75 -84 -55 -80 25 -229 101 -270 137 -41 36 -49 75 -18 85
11 3 52 9 93 14 90 10 151 39 167 80 17 40 1 68 -48 81 -68 18 -147 -8 -177
-60 -20 -33 -68 -60 -110 -60 -36 0 -103 -40 -132 -79 -12 -17 -35 -37 -51
-46 -27 -13 -31 -13 -55 6 -30 24 -33 53 -10 107 30 73 107 134 192 152 55 12
102 42 102 66 0 22 -68 60 -150 85 -100 29 -176 68 -240 123 -30 25 -62 46
-71 46 -23 0 -153 104 -203 161 -62 71 -68 94 -60 228 6 105 5 121 -14 156
-42 84 -64 284 -66 600 -1 245 4 267 64 280 83 18 109 175 37 229 -27 20 -28
20 -61 2 -18 -9 -45 -37 -60 -61 -15 -24 -38 -53 -52 -66 -21 -20 -24 -20 -30
-5 -16 41 40 163 112 246 73 85 115 182 121 282 5 75 3 85 -16 102 -30 27
-172 67 -263 73 l-77 6 -11 -28 c-14 -37 -98 -155 -111 -155 -12 0 -12 115 0
158 6 18 21 46 35 63 31 37 32 49 6 77 -25 27 -59 27 -121 3z m-275 -1707 c33
-11 54 -26 67 -48 22 -35 21 -76 -1 -86 -46 -21 -55 -29 -58 -47 -4 -28 18
-42 84 -53 60 -10 77 -22 127 -94 13 -19 27 -26 52 -26 44 0 67 32 72 103 6
80 12 97 31 97 32 0 118 -47 145 -79 35 -42 25 -63 -49 -98 -60 -28 -75 -56
-55 -99 13 -29 66 -54 113 -54 72 0 198 -90 198 -141 0 -17 -81 -98 -119 -119
-33 -17 -78 -7 -179 39 -135 62 -142 62 -195 6 -31 -34 -51 -47 -70 -47 -47 0
-58 17 -55 91 l3 66 -31 3 c-26 3 -37 -5 -78 -52 -30 -35 -55 -56 -69 -56 -11
0 -53 11 -94 25 -84 29 -99 26 -131 -29 -29 -48 -56 -53 -132 -22 -84 34 -108
33 -171 -10 -114 -77 -181 -99 -459 -153 -113 -22 -304 -60 -425 -85 -355 -72
-509 -87 -672 -65 -111 15 -138 3 -183 -82 -56 -106 -97 -132 -138 -89 -10 11
-24 38 -31 60 -15 50 -48 75 -107 84 -26 3 -56 14 -66 23 -34 31 -18 82 35
109 45 24 56 42 57 94 0 25 9 64 20 87 20 45 90 126 151 174 l36 29 18 -113
c23 -149 41 -214 65 -227 27 -14 133 -12 154 3 12 9 20 34 26 79 9 72 12 81
44 117 43 48 86 49 111 1 19 -36 72 -54 133 -46 98 13 109 69 30 149 -29 30
-66 63 -83 75 l-30 21 85 -19 c168 -38 300 -61 332 -58 36 3 36 1 22 104 -4
32 -2 54 4 58 6 3 107 13 224 21 305 21 309 22 263 76 -50 60 -29 67 200 68
213 1 324 -11 388 -44 27 -14 60 -25 74 -25 39 0 80 53 138 176 50 107 80 144
115 144 9 0 38 -7 64 -16z"/>
<path d="M27212 28189 c-67 -34 -82 -60 -82 -143 0 -71 -14 -139 -65 -311 -73
-253 -118 -683 -80 -777 19 -48 109 8 268 165 113 113 145 168 157 276 10 85
25 125 60 154 40 33 71 123 108 312 40 206 39 226 -15 257 -50 30 -201 79
-257 84 -39 4 -61 0 -94 -17z"/>
</g>
</svg>
